<svg width="46" height="40" viewBox="0 0 46 40" fill="none" xmlns="http://www.w3.org/2000/svg">
<path d="M45.7923 27.1133C45.7923 34.033 40.1828 39.6426 33.263 39.6426L14.4692 39.6426C12.547 39.6426 10.9888 38.0844 10.9888 36.1622L10.9888 12.4959C10.9888 8.65158 14.1052 5.53517 17.9495 5.53517L42.312 5.53518C44.2341 5.53518 45.7923 7.09338 45.7923 9.01552L45.7923 27.1133Z" fill="#E8F5E9"/>
<path d="M19.2834 13.8956C19.0662 13.8956 18.8896 13.7193 18.8896 13.5019V12.8327C18.8896 12.6155 19.0659 12.439 19.2834 12.439C19.5006 12.439 19.6771 12.6152 19.6771 12.8327V13.5019C19.6771 13.7193 19.5006 13.8956 19.2834 13.8956Z" fill="#103E13"/>
<path d="M17.628 13.8956C17.4108 13.8956 17.2343 13.7193 17.2343 13.5019V12.8327C17.2343 12.6155 17.4105 12.439 17.628 12.439C17.8452 12.439 18.0217 12.6152 18.0217 12.8327V13.5019C18.0215 13.7193 17.8455 13.8956 17.628 13.8956Z" fill="#103E13"/>
<path d="M15.9727 13.8956C15.7555 13.8956 15.579 13.7193 15.579 13.5019V12.8327C15.579 12.6155 15.7553 12.439 15.9727 12.439C16.1899 12.439 16.3665 12.6152 16.3665 12.8327V13.5019C16.3665 13.7193 16.1902 13.8956 15.9727 13.8956Z" fill="#103E13"/>
<path d="M19.2834 16.632C19.0662 16.632 18.8896 16.4557 18.8896 16.2382V15.5693C18.8896 15.3522 19.0659 15.1756 19.2834 15.1756C19.5006 15.1756 19.6771 15.3519 19.6771 15.5693V16.2382C19.6771 16.4557 19.5006 16.632 19.2834 16.632Z" fill="#103E13"/>
<path d="M17.628 16.632C17.4108 16.632 17.2343 16.4557 17.2343 16.2382V15.5693C17.2343 15.3522 17.4105 15.1756 17.628 15.1756C17.8452 15.1756 18.0217 15.3519 18.0217 15.5693V16.2382C18.0215 16.4557 17.8455 16.632 17.628 16.632Z" fill="#103E13"/>
<path d="M15.9727 16.632C15.7555 16.632 15.579 16.4557 15.579 16.2382V15.5693C15.579 15.3522 15.7553 15.1756 15.9727 15.1756C16.1899 15.1756 16.3665 15.3519 16.3665 15.5693V16.2382C16.3665 16.4557 16.1902 16.632 15.9727 16.632Z" fill="#103E13"/>
<path d="M19.2834 19.3684C19.0662 19.3684 18.8896 19.1922 18.8896 18.9747V18.3056C18.8896 18.0884 19.0659 17.9118 19.2834 17.9118C19.5006 17.9118 19.6771 18.0881 19.6771 18.3056V18.9747C19.6771 19.1922 19.5006 19.3684 19.2834 19.3684Z" fill="#103E13"/>
<path d="M17.628 19.3684C17.4108 19.3684 17.2343 19.1922 17.2343 18.9747V18.3056C17.2343 18.0884 17.4105 17.9118 17.628 17.9118C17.8452 17.9118 18.0217 18.0881 18.0217 18.3056V18.9747C18.0215 19.1922 17.8455 19.3684 17.628 19.3684Z" fill="#103E13"/>
<path d="M15.9727 19.3684C15.7555 19.3684 15.579 19.1922 15.579 18.9747V18.3056C15.579 18.0884 15.7553 17.9118 15.9727 17.9118C16.1899 17.9118 16.3665 18.0881 16.3665 18.3056V18.9747C16.3665 19.1922 16.1902 19.3684 15.9727 19.3684Z" fill="#103E13"/>
<path d="M19.2834 22.1043C19.0662 22.1043 18.8896 21.928 18.8896 21.7105V21.0414C18.8896 20.8242 19.0659 20.6476 19.2834 20.6476C19.5006 20.6476 19.6771 20.8239 19.6771 21.0414V21.7105C19.6771 21.928 19.5006 22.1043 19.2834 22.1043Z" fill="#103E13"/>
<path d="M17.628 22.1043C17.4108 22.1043 17.2343 21.928 17.2343 21.7105V21.0414C17.2343 20.8242 17.4105 20.6476 17.628 20.6476C17.8452 20.6476 18.0217 20.8239 18.0217 21.0414V21.7105C18.0215 21.928 17.8455 22.1043 17.628 22.1043Z" fill="#103E13"/>
<path d="M15.9727 22.1043C15.7555 22.1043 15.579 21.928 15.579 21.7105V21.0414C15.579 20.8242 15.7553 20.6476 15.9727 20.6476C16.1899 20.6476 16.3665 20.8239 16.3665 21.0414V21.7105C16.3665 21.928 16.1902 22.1043 15.9727 22.1043Z" fill="#103E13"/>
<path d="M19.2834 24.8406C19.0662 24.8406 18.8896 24.6644 18.8896 24.4469V23.778C18.8896 23.5608 19.0659 23.3843 19.2834 23.3843C19.5006 23.3843 19.6771 23.5606 19.6771 23.778V24.4469C19.6771 24.6641 19.5006 24.8406 19.2834 24.8406Z" fill="#103E13"/>
<path d="M17.628 24.8406C17.4108 24.8406 17.2343 24.6644 17.2343 24.4469V23.778C17.2343 23.5608 17.4105 23.3843 17.628 23.3843C17.8452 23.3843 18.0217 23.5606 18.0217 23.778V24.4469C18.0215 24.6641 17.8455 24.8406 17.628 24.8406Z" fill="#103E13"/>
<path d="M15.9727 24.8406C15.7555 24.8406 15.579 24.6644 15.579 24.4469L15.5793 23.778C15.5793 23.5608 15.7555 23.3843 15.973 23.3843C16.1902 23.3843 16.3668 23.5606 16.3668 23.778V24.4469C16.3665 24.6641 16.1902 24.8406 15.9727 24.8406Z" fill="#103E13"/>
<path d="M4.72451 27.5638C4.72451 27.781 4.90079 27.9576 5.11826 27.9576H29.0963C29.3135 27.9576 29.49 27.7813 29.49 27.5638C29.49 27.3466 29.3138 27.1701 29.0963 27.1701H28.3684V15.865C28.3684 15.6478 28.1921 15.4713 27.9747 15.4713L21.546 15.4715V7.32118C21.546 7.18334 21.474 7.05594 21.3565 6.98454C21.2393 6.91288 21.0926 6.90849 20.9707 6.97191L13.6618 10.7773C13.5313 10.8451 13.4501 10.9797 13.4501 11.1266V18.2458H6.37657C6.15938 18.2458 5.98282 18.422 5.98282 18.6395V27.1702H5.11738C4.90019 27.1699 4.72418 27.3462 4.72418 27.5636L4.72451 27.5638ZM21.5461 21.435H27.5813V27.1704L21.5461 27.1701V21.435ZM21.5461 18.6988H27.5813V20.6478L21.5461 20.6475V18.6988ZM21.5461 16.2586H27.5813V17.9119H21.5461V16.2586ZM14.2371 11.3657L20.7583 7.97021V27.1698H14.2371V11.3657ZM8.71675 24.0253C8.71675 23.2081 9.3642 22.5431 10.1602 22.5431C10.9562 22.5431 11.6039 23.2078 11.6039 24.0253V27.1703H8.71675V24.0253ZM6.77029 19.0331H13.4499V27.1701H12.3914V24.0251C12.3914 22.7739 11.3909 21.7557 10.1602 21.7557C8.93009 21.7557 7.92955 22.7736 7.92955 24.0251V27.1701H6.77029V19.0331Z" fill="#103E13"/>
</svg>
