<svg width="46" height="40" viewBox="0 0 46 40" fill="none" xmlns="http://www.w3.org/2000/svg">
<path d="M45.666 27.1133C45.666 34.033 40.0564 39.6426 33.1367 39.6426L14.3428 39.6426C12.4207 39.6426 10.8625 38.0844 10.8625 36.1622L10.8625 12.4959C10.8625 8.65158 13.9789 5.53517 17.8232 5.53517L42.1856 5.53518C44.1078 5.53518 45.666 7.09338 45.666 9.01552L45.666 27.1133Z" fill="#E8F5E9"/>
<path d="M20.1283 17.1211C19.9607 17.1211 19.805 17.075 19.6668 17.0009V17.0028C19.6668 17.2665 19.5643 17.5142 19.3783 17.6996C19.1924 17.8856 18.9449 17.9881 18.6815 17.9881C18.5115 17.9881 18.3539 17.9409 18.2141 17.8648C18.2 18.106 18.1036 18.3315 17.9316 18.5037C17.7456 18.6897 17.4982 18.7922 17.2346 18.7922C16.7109 18.7922 16.2857 18.3806 16.2551 17.8646C16.093 17.9522 15.9099 17.9981 15.7209 17.986C15.2058 17.9522 14.8024 17.5071 14.8024 16.9725V12.5409L14.2978 13.4151C14.1056 13.7495 13.7458 13.9571 13.3584 13.9571C13.1697 13.9571 12.9832 13.9076 12.8181 13.8129C12.6124 13.6937 12.4653 13.5023 12.4042 13.2734C12.3427 13.0443 12.3745 12.8047 12.4934 12.5994C12.4935 12.5994 14.1444 9.74046 14.2452 9.56485C14.2571 9.53845 14.2912 9.46186 14.3203 9.39659C14.348 9.33428 14.3718 9.27032 14.3946 9.20603C14.8924 7.80047 16.1252 6.92737 17.6119 6.92737C19.5426 6.92737 21.1133 8.63058 21.1133 10.7241L21.1135 16.1356C21.1135 16.399 21.0112 16.6465 20.8254 16.8326C20.6394 17.0186 20.3919 17.1211 20.1282 17.1211L20.1283 17.1211ZM17.612 7.45092C16.3344 7.45092 15.3162 8.1725 14.888 9.38113C14.8606 9.45787 14.8321 9.53462 14.7988 9.6094C14.7022 9.82604 14.7022 9.82604 14.675 9.85719L14.6714 9.85408C14.5366 10.1084 14.1361 10.8019 12.9467 12.8614C12.8978 12.9458 12.8849 13.0439 12.9098 13.1377C12.935 13.2315 12.9956 13.3106 13.0794 13.3589C13.3395 13.5083 13.6957 13.4119 13.8439 13.1536L14.8375 11.4333C14.8969 11.3308 15.0169 11.2805 15.1321 11.3116C15.2465 11.3423 15.3261 11.4461 15.3261 11.5645V16.9726C15.3261 17.2278 15.5186 17.448 15.7552 17.4636C15.8917 17.4708 16.0189 17.4251 16.1145 17.3296C16.2015 17.2427 16.2493 17.1269 16.2493 17.0031V13.4661C16.2493 13.3215 16.3666 13.2042 16.5112 13.2042C16.6559 13.2042 16.7731 13.3213 16.7731 13.4661L16.773 17.8071C16.773 18.0616 16.9801 18.2687 17.2346 18.2687C17.3583 18.2687 17.4744 18.2208 17.5615 18.1339C17.6484 18.0468 17.6963 17.9307 17.6963 17.8071V13.4661C17.6963 13.3215 17.8133 13.2042 17.9581 13.2042C18.1028 13.2042 18.22 13.3213 18.22 13.4661L18.2199 16.9624V17.0031C18.2199 17.2575 18.427 17.4646 18.6817 17.4646C18.8052 17.4646 18.9209 17.4165 19.0085 17.3293C19.0954 17.2425 19.1433 17.1268 19.1433 17.0029V13.466C19.1433 13.3213 19.2604 13.2041 19.4052 13.2041C19.5499 13.2041 19.6671 13.3211 19.6671 13.466L19.6668 16.1358C19.6668 16.3904 19.8739 16.5976 20.1283 16.5976C20.2521 16.5976 20.3678 16.5495 20.4548 16.4628C20.542 16.3755 20.5897 16.2594 20.5897 16.1358L20.5899 10.7243C20.5899 8.91955 19.254 7.45097 17.6119 7.45097L17.612 7.45092Z" fill="#103E13"/>
<path d="M9.83859 20.8822L13.6389 18.6023C14.0971 18.3272 14.6867 18.4441 14.9806 18.8687C15.0878 19.0233 15.1426 19.2035 15.1511 19.3871C15.2928 19.3131 15.4469 19.2729 15.6039 19.2729C15.6842 19.2729 15.7649 19.2829 15.8446 19.3028C16.1 19.3666 16.3151 19.5261 16.4504 19.7518C16.5859 19.9777 16.6254 20.2426 16.5616 20.4976C16.5027 20.7336 16.3592 20.9322 16.1597 21.0685C16.2992 21.1508 16.4196 21.2631 16.5052 21.4061C16.6407 21.6321 16.6802 21.8968 16.6165 22.1522C16.5528 22.4072 16.3932 22.6223 16.1672 22.758L16.1659 22.7588C16.303 22.8409 16.4212 22.9521 16.5059 23.093C16.6415 23.319 16.681 23.5838 16.6172 23.8392C16.5533 24.0943 16.3937 24.3095 16.168 24.445L11.5278 27.2287C10.6617 27.7481 9.66053 27.9274 8.70905 27.733C7.74904 27.5369 6.95398 26.9851 6.47056 26.1792C5.70552 24.9042 5.82017 23.3977 6.76919 22.2479C6.81265 22.1955 6.85545 22.142 6.89432 22.0866C6.93548 22.028 6.98353 21.9592 6.99993 21.9355C7.09816 21.7601 8.70104 18.8721 8.70088 18.8725C8.86274 18.5804 9.16612 18.4151 9.47901 18.4153C9.62497 18.4153 9.77305 18.4512 9.90967 18.5269C10.0746 18.6191 10.2132 18.7534 10.3101 18.9153C10.5094 19.2474 10.5164 19.6629 10.3288 19.9993L9.83859 20.8822ZM9.86138 19.1845C9.81055 19.0997 9.74068 19.0322 9.65524 18.9843C9.47862 18.8865 9.25625 18.9502 9.15901 19.1261C8.01206 21.1924 7.62109 21.8966 7.4702 22.1472L7.47365 22.148C7.46102 22.19 7.46102 22.19 7.32294 22.3873C7.27604 22.454 7.22504 22.5181 7.17305 22.5813C6.357 23.57 6.26225 24.8142 6.91935 25.9098C7.32638 26.5884 7.99909 27.0537 8.81362 27.22C9.63702 27.3874 10.5049 27.2316 11.2581 26.7797L15.8988 23.9957C16.0048 23.9323 16.0795 23.8314 16.1094 23.7119C16.1392 23.5925 16.1207 23.4683 16.0571 23.3624C15.9262 23.1443 15.642 23.0726 15.4239 23.204L13.1346 24.5774C13.0106 24.6519 12.8495 24.6119 12.7753 24.4877C12.7008 24.3638 12.741 24.2029 12.865 24.1284L15.1545 22.755L15.898 22.3089C16.0039 22.2453 16.0789 22.1444 16.1087 22.0252C16.1386 21.9057 16.12 21.7814 16.0564 21.6756C15.9254 21.4573 15.6412 21.3863 15.4232 21.5172L12.3902 23.3367C12.2659 23.4113 12.1053 23.3709 12.0309 23.247C11.9564 23.123 11.9968 22.9621 12.1206 22.8877L15.8431 20.6546C15.949 20.591 16.0238 20.4903 16.0536 20.3707C16.0835 20.2513 16.0649 20.1272 16.0015 20.0213C15.938 19.9155 15.8372 19.8407 15.7176 19.8108C15.5974 19.781 15.4738 19.7995 15.3681 19.8628L14.679 20.2763C14.6789 20.2763 14.6789 20.2764 14.6787 20.2764H14.6786L11.6457 22.0959C11.5214 22.1707 11.3607 22.1304 11.2864 22.0062C11.2119 21.8823 11.2523 21.7214 11.3761 21.6469L14.4091 19.8274C14.5151 19.7638 14.59 19.6629 14.6198 19.5437C14.6526 19.4128 14.6277 19.279 14.55 19.1669C14.4152 18.9719 14.1269 18.92 13.9083 19.0514L9.27095 21.8334C9.16944 21.8941 9.0394 21.8793 8.95428 21.7971C8.86901 21.7148 8.84982 21.5854 8.90722 21.482L9.8715 19.7446C9.96826 19.5709 9.96448 19.3564 9.86133 19.1846L9.86138 19.1845Z" fill="#103E13"/>
<path d="M27.9983 26.179C27.515 26.985 26.7202 27.5367 25.76 27.7329C24.8084 27.9269 23.8075 27.748 22.9413 27.2286L18.3006 24.4447C18.0748 24.3092 17.9151 24.094 17.8511 23.8385C17.7876 23.5835 17.8273 23.3187 17.9626 23.093C18.0471 22.952 18.1655 22.8408 18.3027 22.7586L18.3014 22.7578C18.0756 22.6223 17.9159 22.4072 17.8523 22.152C17.7883 21.8968 17.828 21.6318 17.9634 21.4059C18.0507 21.2607 18.1702 21.1472 18.3067 21.0667C18.1086 20.9304 17.9659 20.7325 17.9072 20.4977C17.8432 20.2423 17.8829 19.9775 18.0184 19.7518C18.1537 19.526 18.369 19.3664 18.6242 19.3026C18.7039 19.2826 18.7847 19.2728 18.8648 19.2728C19.0219 19.273 19.176 19.3128 19.3177 19.3869C19.3264 19.2034 19.381 19.0232 19.4883 18.8685C19.7823 18.4443 20.3714 18.3269 20.8302 18.6022L24.6304 20.8817L24.1406 19.9994C23.9527 19.6626 23.9595 19.247 24.1588 18.9148C24.2559 18.7531 24.3946 18.6188 24.5604 18.5258C24.6967 18.4503 24.8443 18.4146 24.9899 18.4146C25.3026 18.4148 25.6063 18.5797 25.768 18.8718C26.3315 19.8871 27.3948 21.8019 27.4696 21.9355C27.4855 21.9587 27.5336 22.0275 27.5747 22.0861C27.6139 22.1417 27.6562 22.1948 27.7 22.2476C28.6489 23.3978 28.7633 24.9041 27.9983 26.179L27.9983 26.179ZM27.296 22.5814C27.2438 22.5182 27.1927 22.4538 27.1461 22.3874C27.0044 22.1863 27.0008 22.1811 26.9901 22.1284C26.8245 21.8544 26.4204 21.1269 25.3097 19.1259C25.2123 18.9502 24.9909 18.8861 24.8146 18.9835C24.7279 19.0321 24.6582 19.0998 24.6073 19.1846C24.5044 19.3563 24.5004 19.5708 24.5977 19.745L25.5616 21.4818C25.6192 21.5854 25.6 21.7147 25.5149 21.797C25.4299 21.8795 25.3 21.8939 25.198 21.8332L20.5607 19.0512C20.3421 18.9202 20.054 18.9715 19.9188 19.1667C19.8411 19.2789 19.8163 19.4127 19.8488 19.5434C19.8787 19.6628 19.9536 19.7635 20.0597 19.8271C20.06 19.8273 20.0602 19.8276 20.0605 19.8278L23.0926 21.6468C23.2166 21.7212 23.2568 21.8819 23.1823 22.0061C23.1078 22.1299 22.9473 22.1704 22.823 22.0958L19.1005 19.8627C18.9949 19.7994 18.8706 19.7807 18.7512 19.8107C18.6315 19.8406 18.5308 19.9153 18.4673 20.0214C18.4037 20.1272 18.3854 20.2514 18.4149 20.3707C18.4447 20.4901 18.5197 20.591 18.6256 20.6546L19.35 21.089L22.3479 22.8877C22.4719 22.9622 22.5121 23.1229 22.4376 23.247C22.3632 23.3708 22.2026 23.4112 22.0783 23.3367L19.0456 21.5172C18.8275 21.386 18.5434 21.4572 18.4123 21.6756C18.3486 21.7816 18.3303 21.9057 18.3598 22.0251C18.3896 22.1445 18.4646 22.2452 18.5707 22.309L19.3142 22.755L21.6034 24.1285C21.7273 24.2029 21.7675 24.3637 21.6931 24.4878C21.6186 24.6116 21.4581 24.6523 21.3338 24.5775L19.0446 23.2041C18.939 23.1407 18.8152 23.1221 18.6951 23.1521C18.5757 23.1819 18.4747 23.2567 18.4113 23.3625C18.3478 23.4684 18.3293 23.5927 18.3588 23.7119C18.3886 23.8313 18.4636 23.932 18.5697 23.9958L23.2104 26.7797C23.9635 27.2315 24.8319 27.388 25.6549 27.22C26.4692 27.0537 27.142 26.5885 27.549 25.9099C28.2068 24.8141 28.1121 23.5697 27.2963 22.5813L27.296 22.5814Z" fill="#103E13"/>
</svg>
