<svg width="46" height="40" viewBox="0 0 46 40" fill="none" xmlns="http://www.w3.org/2000/svg">
<path d="M45.9187 27.1133C45.9187 34.033 40.3092 39.6426 33.3894 39.6426L14.5956 39.6426C12.6734 39.6426 11.1152 38.0844 11.1152 36.1622L11.1152 12.4959C11.1152 8.65158 14.2316 5.53517 18.0759 5.53517L42.4384 5.53518C44.3605 5.53518 45.9187 7.09338 45.9187 9.01552L45.9187 27.1133Z" fill="#E8F5E9"/>
<path d="M17.3729 7.62341C14.8871 7.62341 12.8634 9.6656 12.8634 12.162C12.8634 13.7413 13.6743 15.1357 14.8989 15.9485C13.4199 16.4431 12.1401 17.3673 11.2014 18.5765C10.6824 18.1774 10.1025 17.8563 9.47742 17.6263C10.4254 16.9225 11.0448 15.792 11.0448 14.5214C11.0448 12.4042 9.33245 10.6709 7.22801 10.6709C5.12358 10.6709 3.41119 12.4042 3.41119 14.5214C3.41119 15.7928 4.03118 16.9238 4.97993 17.6275C2.46811 18.5544 0.674194 20.9812 0.674194 23.8371V25.8433C0.674451 25.9963 0.735627 26.1428 0.844097 26.2505C0.952566 26.3584 1.09934 26.4186 1.25228 26.4181H10.0541C10.0754 26.4204 10.0967 26.4217 10.1181 26.4214H24.6282C24.6495 26.4217 24.6711 26.4204 24.6922 26.4181H33.4947C33.8111 26.4168 34.0673 26.16 34.0681 25.8433V23.8371C34.0681 20.9812 32.2773 18.5544 29.7668 17.6273C30.7155 16.9238 31.3355 15.7925 31.3355 14.5212C31.3355 12.4039 29.6231 10.6707 27.5187 10.6707C25.4143 10.6707 23.7019 12.4039 23.7019 14.5212C23.7019 15.7918 24.3216 16.9225 25.2696 17.626C24.6432 17.8566 24.063 18.1787 23.5433 18.5788C22.6051 17.3689 21.3271 16.4433 19.8481 15.9485C21.0723 15.1357 21.8836 13.7413 21.8836 12.162C21.8836 9.6656 19.8589 7.62341 17.373 7.62341H17.3729ZM17.3729 8.77496C19.2321 8.77496 20.7309 10.2838 20.7309 12.162C20.7309 14.0256 19.2554 15.5197 17.4168 15.5437C17.4022 15.5437 17.3878 15.5416 17.3729 15.5416C17.358 15.5416 17.3438 15.5437 17.3289 15.5437C15.4903 15.52 14.0159 14.0256 14.0159 12.162C14.0159 10.2836 15.5134 8.77496 17.3726 8.77496H17.3729ZM7.22808 11.8224C8.70325 11.8224 9.89335 13.0197 9.89335 14.5214C9.89335 16.013 8.71864 17.2051 7.25736 17.2213C7.24759 17.2213 7.23808 17.2203 7.22806 17.2203C7.21829 17.2203 7.20878 17.2213 7.19876 17.2213C5.73748 17.2051 4.56277 16.0127 4.56277 14.5214C4.56277 13.0198 5.75287 11.8224 7.22804 11.8224H7.22808ZM27.5184 11.8224C28.9935 11.8224 30.1836 13.0197 30.1836 14.5214C30.1836 16.013 29.0089 17.2051 27.5476 17.2213C27.5379 17.2213 27.5284 17.2203 27.5183 17.2203C27.5086 17.2203 27.4991 17.2213 27.489 17.2213C26.0277 17.2051 24.853 16.0127 24.853 14.5214C24.853 13.0198 26.0431 11.8224 27.5183 11.8224H27.5184ZM17.3288 16.6952C17.3435 16.6954 17.3578 16.6972 17.3728 16.6972C17.3874 16.6972 17.4018 16.6952 17.4167 16.6952C21.104 16.7188 24.0549 19.6951 24.0549 23.4209L24.0546 25.2695H10.6914V23.4209C10.6914 19.6948 13.6415 16.7189 17.3283 16.6952H17.3288ZM7.18399 18.3742C7.19864 18.3745 7.21304 18.3763 7.22795 18.3763C7.24286 18.3763 7.25699 18.3742 7.2719 18.3742C8.51906 18.3842 9.65725 18.8143 10.5636 19.5337C9.91503 20.6812 9.53999 22.0057 9.53999 23.4212V25.2655H1.82528V23.8371C1.82528 20.8091 4.20602 18.3978 7.18386 18.3739L7.18399 18.3742ZM27.4743 18.3742C27.4892 18.3745 27.5033 18.3763 27.5182 18.3763C27.5331 18.3763 27.5473 18.3742 27.5622 18.3742C30.54 18.3978 32.9208 20.8094 32.9208 23.8373V25.2655H25.2021L25.2018 23.4212C25.2018 22.0064 24.8278 20.683 24.1806 19.5357C25.0871 18.8153 26.2261 18.3842 27.4743 18.3742H27.4743Z" fill="#103E13"/>
</svg>
