<svg width="39" height="34" viewBox="0 0 39 34" fill="none" xmlns="http://www.w3.org/2000/svg">
<g clip-path="url(#clip0_211_2080)">
<path d="M38.8874 14.1802C38.8913 14.1512 38.8913 14.1219 38.8874 14.0928C38.8911 14.0692 38.8911 14.0451 38.8874 14.0214L38.6037 11.98C38.5628 11.7358 38.4534 11.5076 38.2878 11.3208L38.2391 11.2652L38.1501 11.1778L33.2403 7.03162L33.378 7.16666C33.2653 7.03449 33.1239 6.92877 32.964 6.85729C32.8042 6.78581 32.63 6.75038 32.4544 6.75363H30.9636C30.7212 6.74892 30.4843 6.82448 30.2911 6.96809C30.0883 6.82534 29.8441 6.75017 29.5944 6.75363H28.1036C27.9081 6.75052 27.7152 6.79809 27.5445 6.89154C27.3738 6.98499 27.2313 7.121 27.1314 7.2858C26.9774 7.52117 26.9196 7.80477 26.9693 8.08009L27.1557 9.36683C27.0322 9.29822 26.8925 9.26262 26.7506 9.26359H19.5317C19.2727 9.26518 19.0197 9.3396 18.8025 9.47803C18.5926 9.60689 18.424 9.79139 18.3164 10.0102L17.7574 9.54158C17.5374 9.34199 17.2469 9.23381 16.9472 9.23975H5.62067C5.36075 9.24439 5.1066 9.31558 4.88341 9.44627C4.57806 9.62148 4.35429 9.90637 4.25954 10.2406L0.662273 22.0358C0.595059 22.2301 0.588447 22.4397 0.643284 22.6378C0.698121 22.8358 0.811922 23.0134 0.970151 23.1478C1.01138 23.182 1.05467 23.2139 1.09979 23.2431C1.09979 23.2431 1.02686 23.1954 0.986346 23.1557L5.89616 27.3098C6.10385 27.4973 6.3754 27.6021 6.65769 27.6037H18.0734C18.3341 27.5971 18.5884 27.5231 18.8107 27.3893C18.9364 27.3219 19.0488 27.2332 19.1428 27.1271L19.1834 27.0715L19.2482 26.9921L19.2968 26.9047L19.8315 27.3575C20.0362 27.5375 20.3019 27.6365 20.5769 27.6355H32.0168C32.2773 27.627 32.5311 27.5532 32.7541 27.421C32.877 27.3496 32.9888 27.2613 33.0863 27.1589L33.1268 27.1033L33.1916 27.0239C33.2261 26.9736 33.256 26.9205 33.2807 26.865C33.3072 26.8169 33.3289 26.7663 33.3456 26.7141L36.6269 15.9436V15.8482C36.6309 15.8113 36.6309 15.774 36.6269 15.737V15.6656C36.6308 15.6419 36.6308 15.6178 36.6269 15.5941C36.6305 15.5438 36.6305 15.4934 36.6269 15.4431H37.6801C37.7717 15.4514 37.8639 15.4514 37.9556 15.4431H38.0285C38.0878 15.4258 38.1449 15.4018 38.1987 15.3717H38.2797L38.4255 15.2605L38.4903 15.2128L38.6037 15.0698V15.0222L38.6848 14.8871C38.6802 14.8609 38.6802 14.834 38.6848 14.8077C38.6805 14.7948 38.6805 14.7809 38.6848 14.768C38.702 14.7214 38.7155 14.6736 38.7253 14.625C38.7215 14.6094 38.7215 14.593 38.7253 14.5774C38.7213 14.5537 38.7213 14.5295 38.7253 14.5059C38.7253 14.5059 38.8874 14.1961 38.8874 14.1802Z" fill="black"/>
<path d="M17.2793 10.1453C17.3224 10.1834 17.3524 10.2335 17.3654 10.2889C17.3785 10.3443 17.3739 10.4023 17.3523 10.455L13.7631 22.2423C13.7179 22.371 13.6255 22.4786 13.5039 22.5442C13.4049 22.609 13.2904 22.6474 13.1716 22.6554H1.76412C1.66669 22.6508 1.5744 22.6112 1.50485 22.5442C1.46348 22.5066 1.43444 22.4579 1.42145 22.4041C1.40846 22.3504 1.41212 22.294 1.43193 22.2423L5.0292 10.455C5.07065 10.3247 5.16021 10.2143 5.28036 10.1453C5.38095 10.085 5.49493 10.0496 5.61254 10.042H17.0201C17.1167 10.0429 17.2094 10.0798 17.2793 10.1453ZM11.3244 19.8674L13.4714 12.83H7.45981L5.32086 19.8674H11.3244ZM28.1684 10.2644C28.2073 10.3088 28.256 10.3439 28.3107 10.3673C28.3654 10.3907 28.4247 10.4017 28.4844 10.3994H29.967C30.0235 10.4 30.0791 10.3864 30.1288 10.36C30.1784 10.3336 30.2203 10.2952 30.2506 10.2485C30.2769 10.212 30.2955 10.1707 30.3053 10.1271C30.315 10.0834 30.3157 10.0383 30.3073 9.99436L30.0156 7.89743C29.9879 7.80038 29.938 7.71077 29.8698 7.63532C29.8309 7.59097 29.7823 7.55581 29.7275 7.53243C29.6728 7.50905 29.6134 7.49807 29.5538 7.50029H28.0712C28.0147 7.49975 27.959 7.51332 27.9094 7.53973C27.8598 7.56614 27.8179 7.6045 27.7876 7.65121C27.7309 7.76241 27.7066 7.83389 27.7309 7.89743L28.0307 9.99436C28.046 10.0965 28.0943 10.1911 28.1684 10.2644ZM32.8756 7.88155C32.8478 7.78449 32.798 7.69488 32.7298 7.61943C32.6925 7.57525 32.6453 7.5401 32.5919 7.51668C32.5385 7.49326 32.4804 7.48222 32.4219 7.4844H30.9311C30.8756 7.48285 30.8207 7.49606 30.7722 7.52263C30.7237 7.54919 30.6835 7.58814 30.6557 7.63532C30.6018 7.70578 30.5785 7.7943 30.5909 7.88155L30.8906 9.97847C30.9094 10.0795 30.9572 10.1732 31.0284 10.2485C31.068 10.292 31.1168 10.3266 31.1713 10.3499C31.2259 10.3732 31.2848 10.3847 31.3443 10.3836H32.8351C32.8905 10.3843 32.9451 10.3707 32.9934 10.3442C33.0418 10.3177 33.0822 10.2793 33.1106 10.2326C33.1388 10.1971 33.1585 10.1558 33.1683 10.1118C33.1781 10.0679 33.1778 10.0223 33.1673 9.97847L32.8756 7.88155ZM26.864 11.0587L26.7181 10.0261H19.5317C19.4189 10.0322 19.3097 10.0679 19.2157 10.1294C19.156 10.1613 19.1041 10.2055 19.0635 10.259C19.023 10.3125 18.9948 10.3739 18.9808 10.4392L18.3812 12.409C18.3573 12.4582 18.3491 12.5134 18.3578 12.5673C18.3665 12.6212 18.3916 12.6712 18.4298 12.7108C18.4981 12.7738 18.5873 12.8105 18.681 12.8141H27.4149L25.2679 19.8515H16.5583C16.446 19.854 16.3366 19.887 16.2423 19.9468C16.1277 20.0182 16.0441 20.1285 16.0074 20.2566L15.3997 22.2264C15.3799 22.277 15.3747 22.3319 15.3847 22.3851C15.3947 22.4384 15.4195 22.4879 15.4564 22.5282C15.5226 22.5954 15.6125 22.6352 15.7076 22.6394H27.1475C27.2658 22.6295 27.3799 22.5913 27.4797 22.5282C27.5993 22.4623 27.6891 22.3545 27.7309 22.2264L31.0203 11.4559H27.3177C27.2589 11.457 27.2006 11.4463 27.1463 11.4244C27.0919 11.4026 27.0427 11.37 27.0017 11.3288C26.9347 11.2567 26.8874 11.1693 26.864 11.0746V11.0587Z" fill="white"/>
</g>
<defs>
<clipPath id="clip0_211_2080">
<rect width="38.2838" height="20.8821" fill="white" transform="translate(0.606506 6.75342)"/>
</clipPath>
</defs>
</svg>
