<?xml version="1.0" standalone="no"?>
<!DOCTYPE svg PUBLIC "-//W3C//DTD SVG 20010904//EN"
 "http://www.w3.org/TR/2001/REC-SVG-20010904/DTD/svg10.dtd">
<svg version="1.0" xmlns="http://www.w3.org/2000/svg"
 width="2000.000000pt" height="2000.000000pt" viewBox="0 0 2000.000000 2000.000000"
 preserveAspectRatio="xMidYMid meet">

<g transform="translate(0.000000,2000.000000) scale(0.100000,-0.100000)"
fill="#000000" stroke="none">
<path d="M14014 18726 c-17 -7 -154 -85 -305 -171 -151 -87 -497 -286 -769
-443 -272 -157 -569 -328 -660 -380 -677 -389 -2476 -1425 -3405 -1960 -616
-355 -1210 -697 -1320 -760 -110 -63 -272 -156 -360 -207 -304 -175 -1421
-819 -1690 -973 -148 -86 -292 -168 -320 -183 -221 -119 -999 -575 -1034 -605
-66 -57 -117 -143 -136 -227 -14 -65 -15 -494 -13 -4437 l3 -4365 22 -31 c31
-43 85 -68 137 -61 30 3 166 77 526 284 835 483 1921 1108 3500 2018 839 483
1597 919 1685 970 88 51 324 187 525 302 385 222 1382 796 1633 940 143 83
165 98 153 110 -4 5 -734 -412 -2346 -1342 -173 -100 -486 -280 -695 -400
-375 -216 -1603 -922 -2852 -1641 -90 -52 -236 -136 -325 -187 -90 -52 -301
-173 -470 -270 -168 -98 -309 -177 -312 -177 -3 0 -6 2042 -6 4538 0 4310 1
4540 18 4554 9 8 159 96 332 195 173 100 387 223 475 273 88 51 446 257 795
458 349 200 691 397 760 437 69 40 429 247 800 460 371 214 938 540 1260 725
322 185 947 545 1390 800 1152 662 2635 1516 2845 1637 163 94 184 104 219 99
26 -3 49 -15 70 -35 l31 -31 5 -2007 c4 -1603 8 -2007 18 -2011 10 -3 12 391
10 2005 -3 1947 -4 2009 -22 2039 -35 58 -115 86 -172 60z m-9036 -5850 c-2
-8 -85 -107 -186 -220 l-182 -206 -180 0 c-99 0 -180 4 -180 8 0 5 81 101 180
213 l180 204 77 6 c43 3 127 6 186 7 89 2 108 -1 105 -12z m0 -240 c-2 -7 -83
-103 -180 -213 l-178 -200 -106 -6 c-163 -10 -264 -9 -264 4 0 6 30 44 66 85
l66 74 112 0 c61 0 116 4 121 8 6 4 62 64 124 135 l113 127 65 0 c50 0 64 -3
61 -14z m0 -240 c-2 -7 -83 -104 -181 -213 -174 -196 -178 -200 -223 -207 -73
-10 -324 -7 -324 3 0 6 30 44 66 85 l66 76 112 0 c75 0 117 4 127 13 9 6 64
67 123 135 l108 122 65 0 c50 0 64 -3 61 -14z"/>
<path d="M13765 18361 c-68 -42 -105 -101 -105 -166 0 -50 35 -72 82 -52 46
20 86 60 108 109 24 52 25 77 4 106 -19 27 -49 28 -89 3z"/>
<path d="M13395 18148 c-61 -33 -105 -103 -105 -166 0 -45 14 -62 50 -62 79 0
178 141 150 214 -8 21 -16 26 -42 26 -18 0 -42 -6 -53 -12z"/>
<path d="M13025 17934 c-60 -31 -96 -83 -110 -156 -9 -47 22 -83 63 -73 39 9
93 56 119 101 29 51 31 119 4 134 -27 14 -41 13 -76 -6z"/>
<path d="M14969 15832 c-96 -62 -170 -176 -191 -300 -15 -91 0 -135 60 -175
l43 -29 -33 -36 c-94 -105 -148 -236 -156 -378 l-5 -91 61 -36 c33 -21 62 -37
64 -37 3 0 8 39 11 88 9 134 60 253 159 374 l38 46 -34 12 c-55 18 -78 65 -77
152 1 62 6 83 41 154 50 104 133 184 213 206 l52 15 -62 31 c-79 41 -124 41
-184 4z"/>
<path d="M9769 15487 c-195 -112 -550 -316 -789 -453 -239 -138 -570 -328
-735 -423 -165 -95 -308 -179 -318 -186 -22 -16 -35 -89 -18 -99 6 -4 197 99
424 230 226 130 590 339 807 464 217 125 523 301 680 390 157 89 293 169 303
178 17 15 25 102 9 102 -5 0 -168 -91 -363 -203z"/>
<path d="M15202 15378 c-20 -20 -14 -24 23 -20 32 4 34 6 18 18 -22 17 -26 17
-41 2z"/>
<path d="M7670 10534 c0 -3520 3 -4405 13 -4402 9 4 13 891 15 4384 1 2408 0
4389 -3 4402 -3 12 -10 22 -15 22 -7 0 -10 -1532 -10 -4406z"/>
<path d="M2389 14762 c-60 -25 -82 -40 -152 -110 -119 -116 -188 -274 -191
-432 -1 -83 2 -100 23 -136 13 -23 41 -52 62 -65 80 -49 78 -41 28 -100 -106
-125 -185 -270 -219 -404 -10 -41 -19 -120 -21 -190 l-4 -120 95 -57 c52 -32
98 -58 103 -58 4 0 7 42 7 94 0 230 100 470 269 643 l41 43 -27 5 c-57 12 -93
35 -120 76 -55 84 -41 266 33 412 83 166 231 293 356 307 l48 5 -88 50 c-103
58 -166 68 -243 37z"/>
<path d="M9770 14556 c-141 -36 -281 -216 -288 -371 -3 -59 -1 -74 17 -97 109
-138 406 86 428 323 7 68 -15 122 -55 137 -50 19 -57 19 -102 8z"/>
<path d="M2693 14042 l-20 -27 68 0 c37 0 67 0 66 1 -1 1 -23 13 -48 27 l-45
27 -21 -28z"/>
<path d="M9733 13933 c-12 -2 -40 -21 -62 -41 -32 -30 -63 -86 -157 -284 -65
-137 -121 -248 -126 -248 -4 0 -114 99 -244 220 -248 230 -256 235 -312 206
-46 -24 -68 -57 -137 -201 -37 -77 -85 -178 -107 -225 -23 -47 -135 -280 -249
-519 l-209 -435 0 -80 c0 -45 4 -86 8 -92 13 -19 50 -34 69 -27 10 3 196 109
413 233 217 125 422 242 455 260 125 68 912 525 954 553 67 46 81 86 81 244
l0 131 -49 44 c-27 24 -103 94 -169 156 -67 61 -125 111 -129 111 -4 -1 -18
-4 -30 -6z"/>
<path d="M6645 13721 c-36 -9 -93 -38 -117 -58 -14 -13 -27 -13 -86 -3 -38 7
-106 11 -150 8 -68 -4 -89 -10 -129 -34 -57 -35 -139 -134 -155 -186 -8 -26
-23 -44 -53 -64 -63 -39 -90 -93 -89 -175 2 -90 34 -182 99 -276 29 -43 77
-114 107 -157 l53 -79 8 84 c4 46 5 89 2 96 -2 7 -19 13 -37 13 -90 0 -160
109 -124 193 17 42 41 57 90 57 47 0 66 -28 66 -97 0 -28 4 -55 10 -58 16 -10
60 42 60 70 0 20 5 25 24 25 38 0 156 39 221 73 79 42 163 127 199 201 26 55
30 58 42 41 24 -33 52 -120 60 -184 7 -61 7 -61 26 -44 37 33 51 73 45 128 -4
43 -2 53 14 63 31 20 26 87 -9 120 -27 25 -28 29 -16 57 33 76 7 152 -62 181
-36 15 -53 16 -99 5z"/>
<path d="M6665 13210 c-8 -13 -9 -12 28 -28 27 -11 28 -11 25 10 -3 25 -41 37
-53 18z"/>
<path d="M6657 13113 c-22 -21 2 -56 31 -46 20 7 15 53 -6 53 -10 0 -22 -3
-25 -7z"/>
<path d="M6431 13086 c-9 -11 -8 -17 4 -30 20 -20 47 -9 43 18 -4 25 -30 32
-47 12z"/>
<path d="M9995 12738 c-134 -79 -1124 -649 -1685 -971 -201 -115 -375 -220
-387 -233 -23 -25 -31 -78 -14 -89 9 -5 267 141 1421 805 289 166 585 336 658
377 73 42 137 84 143 95 12 23 8 80 -6 84 -5 2 -64 -29 -130 -68z"/>
<path d="M14193 12318 c-10 -11 -13 -289 -15 -1244 l-3 -1229 -22 -53 c-33
-82 -87 -144 -174 -201 -69 -46 -95 -71 -72 -71 4 0 37 18 73 39 130 77 202
184 220 326 16 123 9 2453 -7 2433z"/>
<path d="M6411 11731 c-381 -220 -701 -407 -712 -417 -25 -23 -28 -134 -4
-134 24 0 1387 788 1413 816 25 29 31 104 9 123 -10 8 -175 -82 -706 -388z"/>
<path d="M13000 11961 c-49 -10 -94 -35 -122 -69 l-25 -30 -44 34 c-56 42
-113 58 -186 52 -121 -9 -188 -73 -188 -180 0 -52 -2 -57 -19 -52 -11 4 -41 6
-67 5 -118 -2 -192 -78 -192 -196 0 -75 26 -137 84 -200 37 -40 130 -105 150
-105 4 0 18 24 33 53 14 28 35 63 45 76 l19 25 16 -37 c8 -20 26 -48 40 -60
23 -21 24 -28 16 -58 -21 -71 -2 -171 34 -185 11 -4 13 -12 7 -27 -18 -49 -21
-93 -7 -112 20 -27 40 -7 61 60 44 138 166 194 245 110 46 -49 32 -171 -28
-239 -24 -27 -91 -56 -131 -56 -34 0 -34 0 -28 -41 8 -58 47 -130 85 -156 46
-31 116 -43 246 -43 121 0 129 3 170 58 13 18 61 74 107 124 240 261 322 447
275 623 -24 92 -62 143 -137 182 -34 18 -35 19 -23 48 43 100 -25 231 -122
237 -16 1 -41 -1 -55 -5 -24 -6 -27 -3 -38 33 -28 93 -124 151 -221 131z"/>
<path d="M7005 10937 c-380 -219 -420 -245 -423 -270 -2 -15 1 -27 6 -27 14 0
846 480 854 493 12 19 9 47 -4 47 -7 -1 -202 -110 -433 -243z"/>
<path d="M6090 10811 c-298 -96 -597 -452 -666 -792 -38 -189 14 -348 135
-411 121 -63 305 -22 486 107 75 54 169 150 161 163 -3 6 -29 -13 -59 -42 -57
-57 -137 -118 -207 -158 -180 -102 -361 -96 -441 15 -157 217 17 687 355 956
211 168 437 203 547 84 101 -108 98 -330 -7 -547 -28 -58 -28 -56 -10 -56 18
0 73 126 98 225 29 113 22 258 -15 331 -31 61 -92 116 -146 132 -56 17 -167
14 -231 -7z"/>
<path d="M17197 10019 c-214 -41 -439 -285 -576 -626 -87 -214 -110 -356 -118
-713 -3 -146 -2 -313 2 -372 l7 -107 69 70 c60 60 69 75 69 106 0 50 26 226
55 365 68 331 199 659 358 893 58 85 149 196 193 234 32 29 38 31 51 18 13
-13 7 -22 -47 -78 -211 -215 -394 -576 -484 -951 -8 -33 -8 -33 32 -12 18 8
76 22 129 31 54 8 107 19 119 23 13 5 81 109 181 276 239 399 266 460 267 589
0 63 -4 89 -21 121 -55 104 -166 155 -286 133z"/>
<path d="M7016 9425 c-225 -129 -415 -240 -422 -246 -20 -16 -19 -63 1 -56 11
5 424 241 792 453 53 31 85 84 50 84 -7 0 -197 -106 -421 -235z"/>
<path d="M6165 9310 c-113 -18 -210 -65 -328 -160 -372 -296 -544 -817 -335
-1017 123 -118 333 -92 548 68 86 64 164 144 155 159 -5 8 -27 -7 -69 -47
-149 -145 -300 -223 -436 -225 -88 -2 -130 14 -183 71 -101 107 -103 294 -8
523 105 252 376 522 586 584 302 89 461 -141 341 -494 -13 -37 -33 -86 -45
-109 -25 -50 -25 -53 -7 -53 16 0 70 117 94 204 12 42 17 98 17 181 0 111 -2
124 -27 171 -59 113 -170 165 -303 144z"/>
<path d="M1875 9146 c-91 -26 -165 -136 -165 -247 0 -45 40 -169 81 -252 17
-34 89 -159 159 -277 70 -118 143 -242 162 -275 l34 -60 105 -16 c115 -19 132
-24 171 -51 l28 -19 -7 33 c-3 18 -23 89 -44 158 -96 317 -247 598 -423 786
-64 69 -73 84 -61 94 18 15 49 -9 132 -106 204 -238 367 -590 452 -979 33
-152 71 -387 71 -443 0 -29 10 -44 69 -103 l68 -68 7 52 c12 106 6 602 -9 739
-32 276 -127 524 -282 740 -170 237 -370 344 -548 294z"/>
<path d="M9723 9086 c-70 -33 -160 -126 -202 -209 -27 -53 -35 -83 -39 -142
-5 -74 -5 -74 31 -110 29 -29 42 -35 76 -35 62 0 128 36 202 109 92 93 134
179 134 279 0 70 -1 75 -33 103 -41 37 -96 39 -169 5z"/>
<path d="M9684 8452 c-34 -25 -55 -61 -163 -285 -69 -141 -128 -257 -132 -257
-5 0 -114 99 -244 220 -206 192 -241 220 -268 220 -54 0 -104 -51 -153 -155
-23 -49 -166 -348 -318 -664 l-276 -574 0 -83 c0 -77 2 -84 26 -103 41 -32
-22 -63 544 264 151 88 313 180 360 205 83 45 442 252 805 463 119 69 190 118
210 142 30 37 30 37 33 183 l2 147 -165 153 c-184 169 -193 173 -261 124z"/>
<path d="M13630 8229 c-14 -11 -32 -26 -40 -32 -45 -37 -166 -111 -216 -133
-87 -38 -94 -41 -154 -59 -121 -38 -160 -46 -290 -55 -261 -20 -569 17 -705
85 -27 13 -51 22 -54 20 -10 -11 -118 -1211 -131 -1460 -13 -252 5 -718 50
-1315 36 -476 59 -844 75 -1175 3 -66 8 -150 11 -187 l6 -67 61 -21 c36 -12
101 -24 153 -27 82 -5 97 -3 138 16 38 19 46 28 46 49 0 15 29 205 64 422 126
777 146 1064 90 1325 -8 39 -17 81 -20 95 -3 14 33 257 80 540 46 283 92 564
102 625 10 60 19 105 21 100 1 -6 18 -107 38 -225 19 -118 44 -260 55 -315 10
-55 35 -190 55 -300 56 -313 62 -332 159 -497 82 -141 323 -526 655 -1050 90
-142 169 -258 176 -258 7 0 24 14 38 32 52 62 177 157 237 179 l59 21 -40 112
c-22 61 -62 172 -89 246 -69 194 -192 515 -253 658 -62 148 -126 237 -219 307
l-67 50 -1 530 c-2 892 -16 1576 -35 1675 -21 109 -24 113 -55 89z"/>
<path d="M7010 7904 c-406 -233 -425 -245 -428 -275 -2 -17 1 -30 6 -28 5 2
197 112 427 244 407 234 456 268 429 295 -5 5 -176 -87 -434 -236z"/>
<path d="M6165 7794 c-11 -3 -40 -10 -65 -16 -25 -6 -78 -28 -118 -49 -347
-183 -624 -654 -562 -954 15 -75 33 -110 78 -158 118 -122 340 -95 557 71 98
74 160 136 150 152 -4 7 -33 -14 -77 -56 -140 -132 -279 -203 -413 -211 -68
-5 -88 -2 -130 16 -128 55 -176 222 -124 432 80 321 386 663 656 733 106 28
192 16 263 -34 38 -27 87 -131 95 -200 11 -95 -25 -260 -81 -372 -28 -55 -28
-58 -10 -58 19 0 79 147 101 244 24 106 17 243 -14 308 -29 60 -74 105 -130
130 -43 20 -137 31 -176 22z"/>
<path d="M2501 7614 c1 -27 5 -60 10 -74 5 -16 6 1 2 45 -7 83 -13 99 -12 29z"/>
<path d="M7010 6384 c-366 -210 -425 -248 -428 -269 -2 -14 2 -25 8 -25 6 0
199 108 430 241 406 233 450 263 423 290 -4 4 -199 -102 -433 -237z"/>
<path d="M6075 6252 c-206 -70 -427 -278 -554 -522 -76 -148 -104 -244 -105
-370 -2 -165 40 -251 148 -308 44 -23 62 -27 131 -26 138 3 273 65 423 194 79
68 101 94 89 106 -3 4 -37 -22 -75 -57 -137 -130 -282 -207 -407 -216 -99 -7
-147 8 -205 66 -56 56 -70 93 -77 206 -19 297 245 704 564 870 200 103 390 60
447 -102 43 -122 19 -307 -60 -465 -28 -55 -28 -58 -10 -58 19 0 79 147 101
244 26 115 18 244 -18 319 -67 136 -213 180 -392 119z"/>
<path d="M14385 4252 c-87 -42 -155 -124 -155 -186 0 -15 12 -63 27 -107 20
-60 38 -91 67 -120 43 -43 41 -59 -4 -42 -29 11 -30 10 -30 -20 0 -17 14 -54
30 -84 17 -29 30 -57 30 -63 0 -18 -29 -11 -42 10 -14 21 -28 27 -28 10 0 -5
14 -32 30 -58 17 -27 30 -54 30 -61 0 -23 -31 -10 -49 20 l-19 32 -17 -54
c-10 -30 -19 -92 -20 -139 l-3 -85 -33 3 c-46 5 -101 35 -132 71 -27 32 -37
26 -37 -24 0 -53 155 -125 269 -125 51 1 73 10 236 93 128 66 184 99 193 117
9 18 11 56 6 140 -5 107 -3 123 25 232 17 64 31 136 31 158 0 45 -11 59 -107
135 -28 22 -80 66 -116 98 -78 69 -117 79 -182 49z"/>
<path d="M12151 3625 c-12 -22 -33 -58 -46 -80 -14 -22 -31 -69 -39 -103 -16
-71 -19 -77 -37 -67 -12 8 -8 113 6 148 6 13 2 17 -19 17 -34 0 -54 -32 -66
-105 -5 -32 -12 -60 -15 -64 -22 -21 -35 112 -15 150 9 16 7 19 -15 19 -30 0
-79 -62 -97 -122 -6 -21 -16 -37 -22 -35 -20 7 -8 88 19 128 l25 39 -30 0
c-23 0 -42 -11 -75 -44 -58 -59 -85 -143 -85 -267 l0 -89 -27 6 c-47 11 -126
54 -160 87 -31 29 -33 29 -33 10 0 -37 45 -78 117 -106 106 -41 186 -50 372
-44 151 5 178 3 291 -20 157 -32 283 -34 355 -6 l50 19 0 84 c-1 140 -24 419
-36 442 -11 20 -12 21 -22 2 -39 -75 -132 -121 -220 -110 -88 12 -131 47 -147
119 l-6 32 -23 -40z"/>
</g>
</svg>
