<?xml version="1.0" standalone="no"?>
<!DOCTYPE svg PUBLIC "-//W3C//DTD SVG 20010904//EN"
 "http://www.w3.org/TR/2001/REC-SVG-20010904/DTD/svg10.dtd">
<svg version="1.0" xmlns="http://www.w3.org/2000/svg"
 width="2000.000000pt" height="2000.000000pt" viewBox="0 0 2000.000000 2000.000000"
 preserveAspectRatio="xMidYMid meet">
<metadata>
Created by potrace 1.16, written by Peter Selinger 2001-2019
</metadata>
<g transform="translate(0.000000,2000.000000) scale(0.100000,-0.100000)"
fill="#000000" stroke="none">
<path d="M12113 18975 c-29 -8 -72 -24 -95 -36 -24 -11 -2349 -1351 -5167
-2977 -4586 -2647 -5129 -2963 -5182 -3015 -70 -70 -123 -171 -138 -267 -6
-38 -11 -242 -11 -485 l-1 -420 -270 -155 c-149 -85 -280 -166 -290 -179 -18
-23 -19 -43 -17 -385 3 -419 -10 -385 125 -305 l83 49 0 -95 0 -94 33 -24 c61
-45 126 -77 154 -77 15 1 62 21 103 45 l75 44 3 -116 c1 -64 1 -122 -2 -128
-2 -6 -127 -82 -279 -169 -196 -112 -278 -164 -286 -182 -7 -17 -11 -136 -11
-379 0 -414 -12 -384 124 -305 l86 49 0 -85 c0 -47 4 -94 10 -104 12 -22 149
-100 176 -100 11 0 54 20 98 45 43 25 80 45 82 45 2 0 4 -56 4 -124 l0 -124
-277 -160 c-178 -102 -282 -168 -290 -183 -9 -18 -13 -117 -13 -381 0 -334 1
-358 18 -358 9 0 55 23 102 50 l85 49 3 -77 c1 -42 4 -87 7 -99 5 -23 148
-113 181 -113 11 0 54 20 96 45 43 25 80 45 83 45 3 0 5 -80 5 -177 l-1 -178
-272 -156 c-232 -132 -275 -160 -289 -190 -17 -32 -18 -94 -18 -869 0 -637 3
-839 12 -848 19 -19 39 -14 118 32 l75 44 6 -66 c3 -37 11 -77 17 -89 20 -37
108 -95 171 -113 l26 -7 -2 870 -2 870 -96 55 c-52 30 -95 58 -95 63 0 18 44
47 197 133 144 81 319 181 726 414 l147 84 0 278 0 278 183 105 c112 65 187
114 194 128 15 28 18 705 4 727 -6 11 -147 -66 -602 -328 -327 -189 -613 -355
-635 -370 l-41 -28 -87 50 c-47 27 -86 53 -86 58 0 5 46 35 102 67 56 32 110
63 119 68 10 6 71 40 136 77 65 36 251 143 413 236 l295 171 3 233 2 234 181
104 c99 57 187 113 195 124 21 30 21 724 0 732 -12 5 -1167 -649 -1248 -707
l-27 -19 -63 36 c-110 64 -111 64 -98 79 6 8 89 58 183 111 95 54 330 189 522
299 l350 201 3 235 2 234 176 100 c97 55 185 111 195 124 18 22 19 46 19 378
0 283 -3 355 -13 359 -10 4 -1137 -635 -1255 -712 -20 -13 -28 -11 -102 32
-44 25 -82 50 -85 55 -7 10 54 50 240 154 77 44 293 167 480 275 l340 195 5
185 c5 168 8 189 29 233 13 26 42 64 65 83 58 51 9891 5724 9931 5731 27 4 39
0 59 -20 24 -24 26 -33 26 -117 0 -49 3 -90 6 -90 3 0 71 37 150 83 l144 82 0
220 c0 238 -8 293 -56 392 -33 70 -106 149 -163 177 -90 46 -217 58 -318 31z
m-9755 -7348 c6 -6 13 -24 17 -39 6 -23 2 -30 -27 -48 -18 -11 -42 -18 -54
-15 -26 6 -64 -21 -64 -46 0 -22 3 -23 70 -7 70 16 85 1 83 -83 -1 -73 -36
-136 -101 -186 -69 -53 -130 -41 -147 28 -6 22 -1 29 30 48 24 14 45 19 61 15
31 -8 74 19 74 47 0 15 -5 19 -17 15 -88 -24 -117 -18 -133 29 -22 67 24 187
90 231 38 26 101 32 118 11z m-286 -164 c29 -26 23 -68 -14 -91 -22 -14 -37
-18 -49 -12 -12 7 -24 4 -43 -11 -52 -41 -26 -59 57 -40 53 13 77 -11 77 -76
0 -91 -63 -184 -147 -220 -44 -18 -50 -17 -78 12 -38 37 -33 71 14 94 28 15
41 17 49 9 14 -14 59 7 74 35 14 27 4 32 -49 20 -85 -20 -110 8 -101 107 12
121 145 232 210 173z m-289 -158 c19 -14 37 -70 29 -93 -2 -7 -18 -20 -35 -28
-29 -16 -31 -15 -48 7 -16 22 -18 22 -43 6 -33 -22 -50 -84 -43 -165 3 -35 7
-66 10 -69 4 -3 17 -3 31 1 17 4 29 19 41 49 15 39 55 77 82 77 15 0 -1 -80
-25 -127 -58 -112 -160 -158 -201 -91 -19 31 -26 181 -12 250 16 77 64 147
121 176 51 25 68 27 93 7z m647 -1181 l0 -156 55 31 c59 34 75 33 75 -2 0 -53
-13 -67 -107 -123 -75 -44 -97 -53 -104 -43 -5 8 -9 100 -9 205 0 198 2 209
45 232 44 24 45 20 45 -144z m-150 -135 l0 -200 -26 -24 c-47 -44 -54 -35 -55
68 l0 92 -20 -54 c-31 -87 -56 -104 -83 -53 -15 26 -15 24 -16 -48 0 -41 -3
-84 -6 -96 -5 -18 -50 -54 -68 -54 -3 0 -6 97 -6 215 l0 214 31 17 c37 19 41
16 77 -61 l27 -57 33 106 c28 93 37 109 64 126 17 10 35 17 40 14 4 -3 8 -95
8 -205z m-330 -21 c0 -51 -5 -59 -47 -83 l-33 -19 0 -163 0 -163 -32 -20 c-18
-11 -36 -20 -40 -20 -5 0 -8 72 -8 160 l0 160 -32 -20 c-18 -11 -36 -20 -40
-20 -5 0 -8 22 -8 49 l0 49 113 66 c61 36 115 65 120 65 4 1 7 -18 7 -41z
m-290 -338 l0 -210 -32 -20 c-18 -11 -36 -20 -40 -20 -5 0 -8 34 -8 75 0 41
-2 75 -4 75 -3 0 -21 -9 -40 -21 l-36 -21 0 -78 c0 -73 -2 -80 -26 -99 -53
-42 -54 -39 -54 188 l0 209 34 21 c18 12 36 21 40 21 3 0 6 -34 6 -75 0 -41 2
-75 4 -75 3 0 21 9 40 21 l36 21 0 78 c0 74 2 80 28 99 52 39 52 38 52 -189z
m630 -986 l0 -56 25 16 c37 25 45 20 45 -29 0 -42 -3 -48 -35 -66 -34 -20 -35
-23 -35 -79 0 -55 -2 -59 -34 -78 -19 -11 -37 -18 -40 -15 -3 4 -6 29 -6 56
l0 49 -25 -16 c-37 -25 -45 -20 -45 29 0 42 3 48 35 66 34 20 35 23 35 79 0
55 2 59 33 79 17 11 35 21 40 21 4 0 7 -25 7 -56z m-260 -150 l0 -56 25 16
c37 25 45 20 45 -29 0 -42 -3 -48 -35 -66 -34 -20 -35 -23 -35 -79 0 -55 -2
-59 -34 -78 -19 -11 -37 -18 -40 -15 -3 4 -6 28 -6 55 l0 49 -30 -16 c-16 -8
-31 -15 -35 -15 -3 0 -5 20 -5 45 0 42 3 48 35 66 34 20 35 23 35 79 0 55 2
59 33 79 17 11 35 21 40 21 4 0 7 -25 7 -56z m-220 -32 c13 -11 23 -33 27 -59
5 -41 4 -43 -32 -60 -35 -17 -37 -17 -46 0 -16 27 -47 20 -69 -15 -25 -41 -29
-188 -6 -207 19 -16 63 21 71 60 6 27 53 69 78 69 26 0 -14 -121 -60 -178 -63
-77 -128 -92 -167 -39 -19 25 -21 41 -20 140 1 90 5 121 22 159 37 83 104 142
168 147 7 1 22 -7 34 -17z"/>
<path d="M11964 17372 c-6 -4 -27 -32 -48 -62 l-37 -55 26 -21 c21 -16 28 -34
35 -85 5 -35 10 -70 10 -76 0 -14 87 -18 106 -5 6 4 38 48 72 99 l61 91 -67
37 c-37 21 -85 48 -107 61 -22 13 -45 20 -51 16z"/>
<path d="M11519 17193 c-2 -119 -12 -150 -69 -208 l-53 -53 -41 13 c-22 7 -50
16 -61 20 -11 4 22 -18 73 -49 51 -31 125 -67 165 -80 85 -29 93 -26 157 55
32 41 40 59 40 92 0 23 3 65 6 92 l6 50 -98 55 c-54 30 -104 56 -111 58 -9 3
-13 -11 -14 -45z"/>
<path d="M12820 16998 c-12 -35 -34 -72 -47 -84 l-24 -21 38 -17 c21 -9 48
-33 61 -52 l23 -35 37 21 c30 17 42 33 63 89 l26 68 -56 33 c-31 19 -66 40
-77 47 -20 13 -22 11 -44 -49z"/>
<path d="M12231 16999 c-9 -26 -7 -39 9 -75 10 -24 23 -44 27 -44 16 0 133 53
133 60 0 8 -137 90 -150 90 -5 0 -13 -14 -19 -31z"/>
<path d="M12556 16813 c4 -15 10 -37 14 -48 15 -42 -34 -120 -83 -131 -88 -19
-88 -21 4 -73 55 -31 89 -44 99 -39 8 4 33 12 55 17 33 9 45 19 64 55 23 42
24 47 11 100 -14 58 -22 65 -163 143 -4 3 -5 -8 -1 -24z"/>
<path d="M11893 16810 c-18 -7 -23 -17 -23 -47 -1 -136 -109 -332 -229 -414
-55 -37 -60 -52 -36 -103 20 -42 66 -68 124 -69 208 -2 441 416 327 586 -12
17 -33 37 -46 44 -29 15 -85 16 -117 3z"/>
<path d="M11193 16707 c26 -25 47 -48 47 -52 0 -4 -9 -39 -20 -76 -20 -68 -22
-69 -103 -127 l-82 -58 -3 -102 -3 -101 90 -52 89 -53 -35 -69 c-24 -48 -31
-73 -24 -80 6 -6 54 -36 107 -67 l97 -57 49 99 c26 55 48 106 48 113 0 25 -33
85 -47 85 -7 0 -43 -13 -79 -30 -37 -16 -70 -27 -75 -24 -14 8 -11 188 4 206
6 9 45 39 84 67 69 50 74 55 93 118 11 36 20 71 20 77 0 23 -105 112 -195 165
-118 71 -118 71 -62 18z"/>
<path d="M12953 16682 c-7 -5 -18 -35 -24 -67 -17 -94 -64 -171 -138 -228 -46
-35 -47 -56 -5 -94 90 -82 260 69 290 256 8 48 -10 106 -39 126 -23 16 -64 20
-84 7z"/>
<path d="M12470 16392 c0 -11 -20 -44 -45 -74 -25 -30 -45 -60 -45 -67 0 -6 9
-29 20 -50 14 -29 37 -49 91 -80 51 -30 69 -36 64 -24 -21 49 -17 63 29 120
41 50 47 61 44 97 -3 40 -4 41 -43 44 -22 2 -47 9 -55 16 -8 8 -25 19 -37 25
-20 10 -23 9 -23 -7z"/>
<path d="M11650 15933 c-29 -6 -47 -19 -60 -44 -8 -14 3 -24 68 -63 42 -25 78
-42 80 -38 1 5 -1 39 -5 78 -7 64 -10 69 -33 70 -14 1 -36 0 -50 -3z"/>
<path d="M12495 15717 l-140 -83 -3 -153 -3 -153 58 32 c32 18 100 57 151 87
l92 54 0 150 c0 82 -3 149 -7 148 -5 0 -71 -37 -148 -82z"/>
<path d="M6720 13505 c-1906 -1097 -3473 -1995 -3482 -1995 -9 0 -23 6 -30 13
-32 29 -124 77 -132 69 -4 -3 -6 -1075 -6 -2382 l0 -2376 23 -44 c19 -39 36
-53 122 -103 118 -69 122 -69 239 3 44 27 272 159 506 294 l425 244 5 1713 5
1714 21 45 c12 25 32 55 45 66 13 12 690 406 1504 876 814 470 1716 991 2005
1157 443 256 527 308 540 335 12 25 53 53 200 138 452 263 451 262 472 249 16
-10 28 -7 74 19 30 18 61 45 69 60 17 33 56 64 132 106 45 24 56 27 72 17 18
-11 59 10 345 175 l326 187 0 708 c0 389 -3 707 -7 706 -5 0 -1567 -897 -3473
-1994z m3000 1345 c0 -30 -39 -68 -110 -110 -74 -43 -97 -49 -107 -24 -13 36
23 78 108 126 85 48 109 50 109 8z m-350 -201 c0 -10 -12 -32 -27 -48 -37 -39
-810 -484 -828 -477 -22 8 -18 51 8 80 12 14 202 129 421 256 408 235 426 243
426 189z m163 -167 c-2 -43 -17 -59 -108 -111 -86 -50 -111 -49 -101 2 8 40
19 51 104 104 81 51 108 52 105 5z m-345 -193 c2 -17 -5 -36 -20 -52 -28 -32
-622 -377 -649 -377 -25 0 -26 49 -1 79 23 28 633 381 652 378 8 -1 16 -14 18
-28z m345 -68 c-2 -42 -17 -59 -108 -110 -86 -49 -111 -49 -101 1 8 43 19 53
105 104 88 51 107 52 104 5z m180 -161 c-2 -41 -23 -61 -117 -114 -71 -40 -96
-41 -96 -4 0 38 27 65 108 113 90 53 108 54 105 5z m-523 -35 c0 -12 -9 -34
-20 -48 -21 -27 -620 -379 -648 -381 -22 -1 -28 39 -11 70 17 33 641 396 665
387 8 -3 14 -15 14 -28z m-1180 -104 c0 -10 -8 -28 -17 -39 -19 -20 -2432
-1411 -2464 -1419 -15 -4 -19 0 -19 20 0 13 6 30 14 36 27 23 2461 1421 2474
1421 6 0 12 -9 12 -19z m1360 -57 c0 -13 -12 -37 -27 -53 -36 -38 -811 -484
-829 -477 -18 7 -18 55 0 78 12 16 163 106 639 379 104 60 195 105 203 102 7
-3 14 -16 14 -29z m-1380 -377 c0 -13 -10 -33 -22 -44 -20 -18 -2558 -1476
-2592 -1489 -23 -9 -28 28 -9 54 20 27 2576 1499 2606 1501 11 1 17 -6 17 -22z
m-758 -227 c-1 -14 -8 -30 -15 -37 -23 -23 -2341 -1353 -2352 -1349 -14 4 -8
48 9 64 26 26 2331 1351 2346 1348 10 -1 14 -11 12 -26z m762 21 c23 -36 -8
-55 -1309 -801 -713 -408 -1304 -743 -1313 -744 -24 -2 -27 36 -5 58 24 25
2583 1494 2605 1495 9 1 19 -3 22 -8z m-4 -240 c0 -10 -8 -28 -17 -39 -19 -21
-3885 -2252 -3903 -2252 -22 0 -9 50 18 70 46 34 3876 2240 3890 2240 6 0 12
-9 12 -19z m-2558 -612 c-1 -13 -6 -27 -10 -30 -4 -4 -308 -181 -676 -394
-433 -250 -672 -383 -678 -377 -32 32 12 61 682 448 365 211 669 383 675 381
5 -3 9 -15 7 -28z m-142 -492 c0 -13 -8 -31 -17 -40 -26 -22 -675 -397 -689
-397 -23 0 -23 30 -1 55 26 30 663 404 690 404 11 1 17 -7 17 -22z m-500 -80
c0 -13 -10 -33 -22 -44 -38 -34 -687 -405 -698 -398 -17 11 -11 41 14 64 28
27 676 401 693 401 7 0 13 -10 13 -23z m500 -141 c0 -17 -11 -33 -32 -49 -46
-33 -1155 -668 -1179 -674 -27 -7 -26 38 2 63 32 29 1172 683 1192 683 12 1
17 -7 17 -23z m-766 -205 c4 -5 2 -20 -3 -34 -7 -18 -66 -57 -220 -146 -115
-66 -217 -121 -225 -121 -21 0 -20 33 2 59 18 21 408 250 429 250 6 1 14 -3
17 -8z m-696 -64 c2 -25 -2 -55 -8 -66 -10 -20 -196 -131 -218 -131 -8 0 -12
19 -12 53 0 43 5 58 23 74 30 28 189 122 202 119 6 -1 11 -23 13 -49z m2 -266
c0 -38 -6 -56 -22 -75 -27 -29 -198 -127 -210 -120 -13 8 -9 98 5 118 16 22
187 124 210 125 14 1 17 -8 17 -48z m-2 -264 c2 -25 -2 -55 -8 -66 -10 -20
-196 -131 -218 -131 -20 0 -15 94 6 121 21 25 192 129 207 125 6 -1 11 -23 13
-49z m2 -265 c0 -26 -7 -57 -15 -69 -17 -25 -184 -123 -209 -123 -13 0 -16 10
-16 48 0 27 6 56 13 66 16 22 187 124 210 125 14 1 17 -8 17 -47z m460 -258
c0 -32 -22 -53 -110 -103 -97 -55 -105 -58 -113 -37 -11 27 20 61 98 107 84
50 125 60 125 33z m-460 -262 c0 -26 -7 -57 -15 -69 -17 -25 -184 -123 -209
-123 -13 0 -16 10 -16 48 0 27 6 57 14 67 17 23 185 123 209 124 14 1 17 -8
17 -47z m456 -177 c11 -27 -22 -59 -108 -107 -47 -27 -90 -48 -96 -48 -20 0
-13 46 9 66 28 25 161 103 177 104 7 0 15 -7 18 -15z m-458 -80 c6 -70 -2 -80
-105 -141 -133 -78 -133 -78 -133 -13 0 30 4 60 9 67 11 18 203 132 216 128 6
-1 11 -20 13 -41z m462 -131 c0 -32 -22 -52 -108 -102 -96 -56 -107 -59 -115
-38 -11 27 20 61 98 107 84 50 125 60 125 33z m-460 -142 c0 -26 -7 -57 -15
-69 -17 -25 -184 -123 -209 -123 -23 0 -22 90 2 118 22 27 182 121 205 122 14
0 17 -9 17 -48z m457 -58 c8 -22 -13 -56 -46 -75 -141 -81 -158 -89 -169 -76
-20 24 11 61 98 114 92 56 107 61 117 37z m-459 -207 c2 -25 -2 -55 -7 -65
-10 -19 -199 -132 -220 -132 -13 0 -15 98 -2 119 11 18 203 131 216 127 6 -1
11 -23 13 -49z m460 -73 c2 -11 -7 -29 -20 -41 -32 -30 -180 -113 -190 -107
-14 9 -8 50 10 66 29 26 176 108 187 105 6 -2 11 -12 13 -23z m-2 -179 c11
-27 -23 -61 -107 -109 -86 -49 -104 -54 -112 -33 -10 27 22 59 104 107 91 53
107 58 115 35z m-458 -260 c6 -70 -1 -79 -112 -144 -58 -34 -109 -61 -115 -61
-15 0 -14 102 2 122 15 21 199 128 212 124 6 -1 11 -20 13 -41z m462 -189 c0
-27 -41 -65 -121 -110 -45 -25 -86 -46 -91 -46 -5 0 -8 15 -6 32 3 29 12 39
88 85 85 51 130 65 130 39z m-460 -85 c0 -32 -6 -56 -17 -69 -21 -25 -188
-122 -209 -122 -22 0 -19 102 4 122 31 28 187 117 205 118 14 0 17 -9 17 -49z
m456 -116 c11 -27 -22 -59 -108 -107 -47 -27 -90 -48 -96 -48 -20 0 -14 46 8
65 27 24 161 103 178 104 7 1 15 -6 18 -14z m-456 -148 c0 -29 -6 -60 -12 -69
-15 -19 -199 -128 -216 -128 -16 0 -16 102 1 122 14 20 197 128 215 128 8 0
12 -17 12 -53z m457 -63 c7 -21 -38 -63 -117 -108 -43 -25 -84 -46 -90 -46
-14 0 -13 55 3 68 7 6 48 31 92 56 78 45 105 52 112 30z m-457 -202 c0 -26 -7
-57 -15 -68 -16 -24 -186 -124 -210 -124 -23 0 -21 102 3 123 30 27 186 116
205 117 14 0 17 -9 17 -48z m456 -287 c11 -27 -23 -61 -107 -109 -93 -52 -109
-56 -109 -23 0 30 22 50 113 103 80 47 95 51 103 29z m-456 -231 c0 -25 -4
-54 -10 -64 -11 -20 -193 -130 -216 -130 -24 0 -19 102 6 125 30 27 203 124
212 119 5 -3 8 -25 8 -50z m456 42 c11 -28 -16 -54 -106 -105 -49 -28 -94 -51
-100 -51 -19 0 -10 46 13 67 28 27 158 103 175 103 7 0 15 -6 18 -14z m-456
-308 c0 -29 -6 -61 -13 -70 -19 -24 -206 -130 -217 -123 -14 9 -12 98 3 118
14 19 196 127 215 127 8 0 12 -17 12 -52z"/>
<path d="M14440 14579 c-36 -21 -2269 -1311 -4962 -2867 l-4898 -2827 0 -1403
0 -1403 24 13 c13 7 2249 1298 4970 2868 l4945 2855 1 1403 c0 771 -3 1402 -7
1401 -5 0 -37 -18 -73 -40z m-1202 -1065 c107 -60 97 49 97 -1054 l0 -965 -23
-51 c-13 -28 -42 -69 -65 -92 -63 -62 -2597 -1522 -2654 -1529 -35 -5 -52 0
-105 30 -115 64 -103 -62 -103 1051 l0 971 33 67 c20 40 47 78 70 96 33 26
2446 1422 2582 1494 63 34 77 32 168 -18z m-5498 -3244 c46 -25 31 -129 -28
-190 -46 -47 -1645 -972 -1681 -972 -36 -1 -51 28 -51 94 0 49 4 62 28 87 23
25 1621 955 1685 981 29 11 26 11 47 0z m1340 -194 c0 -12 -3065 -1790 -3100
-1798 -8 -2 -15 3 -15 11 0 13 3077 1799 3103 1800 6 1 12 -5 12 -13z m0 -184
c0 -5 -8 -16 -17 -24 -34 -28 -962 -558 -978 -558 -9 0 -15 5 -13 12 5 13 976
577 996 578 6 0 12 -4 12 -8z m-2 -194 c-6 -17 -1127 -667 -1151 -667 -10 -1
-17 4 -15 11 5 15 1128 666 1151 667 11 1 17 -4 15 -11z m-1900 -134 c48 -34
14 -164 -55 -210 -105 -69 -1081 -624 -1098 -624 -35 0 -45 20 -45 91 0 61 3
69 29 95 33 32 1119 664 1141 664 3 0 16 -7 28 -16z m1897 -63 c-25 -25 -3097
-1791 -3106 -1785 -6 3 -9 10 -7 15 6 18 3103 1798 3112 1789 6 -6 6 -13 1
-19z m2 -178 c5 -13 -985 -586 -998 -577 -6 3 -9 10 -7 15 4 12 980 578 992
575 6 -1 11 -7 13 -13z m-1137 -96 c0 -13 -629 -380 -661 -385 -22 -4 -25 11
-6 26 25 21 642 371 655 372 6 0 12 -6 12 -13z m1140 -90 c0 -12 -1133 -672
-1154 -672 -6 0 -11 6 -11 13 0 12 1130 671 1153 672 6 0 12 -6 12 -13z
m-1300 -187 c0 -13 -4 -16 -606 -363 -293 -169 -539 -307 -549 -307 -9 0 -15
5 -13 12 5 13 1137 668 1155 668 7 0 13 -4 13 -10z m-655 -199 c-20 -20 -1138
-661 -1152 -661 -8 0 -13 6 -11 13 7 20 1152 677 1162 667 6 -6 6 -13 1 -19z
m815 -84 c0 -11 -633 -383 -662 -389 -7 -2 -13 3 -13 11 0 13 639 390 663 391
6 0 12 -6 12 -13z m-160 -280 c0 -12 -1132 -672 -1154 -672 -6 0 -11 6 -11 12
0 13 1130 672 1153 673 6 0 12 -6 12 -13z m-1300 -190 c0 -19 -499 -302 -511
-290 -6 6 -5 14 3 20 26 22 483 283 496 283 6 0 12 -6 12 -13z m650 3 c0 -13
16 -4 -600 -359 -362 -209 -558 -317 -564 -311 -6 6 -6 13 -1 19 19 18 1140
661 1152 661 7 0 13 -4 13 -10z m-655 -568 c0 -14 -479 -292 -502 -292 -8 0
-13 6 -11 13 5 14 489 296 503 293 6 -2 10 -8 10 -14z"/>
<path d="M13075 13400 c-71 -43 -649 -384 -1283 -757 -634 -373 -1167 -692
-1184 -708 -47 -44 -75 -117 -82 -210 -7 -98 -29 -1825 -23 -1831 8 -8 2592
1487 2625 1519 19 18 46 55 60 82 l27 50 3 968 c1 532 -1 967 -5 967 -5 -1
-66 -37 -138 -80z m-935 -1160 c26 -26 26 -90 1 -146 -25 -56 -86 -112 -129
-120 -31 -6 -39 -3 -59 20 -27 32 -28 54 -8 124 21 70 92 142 141 142 21 0 42
-8 54 -20z m479 -385 l171 -110 0 -128 c0 -158 -5 -168 -109 -230 -289 -174
-1676 -965 -1683 -961 -4 3 -8 69 -8 147 l0 142 329 468 c180 257 332 472 338
478 7 7 87 -35 249 -130 131 -76 241 -138 243 -136 2 2 -18 29 -43 61 -30 36
-43 60 -38 68 5 6 71 92 147 191 200 261 205 266 220 258 7 -5 90 -57 184
-118z"/>
<path d="M12044 12218 c-38 -30 -51 -46 -69 -87 -16 -35 -20 -88 -9 -115 10
-27 60 -19 99 15 43 38 62 73 71 127 5 32 2 44 -15 61 -27 27 -41 26 -77 -1z"/>
<path d="M12268 11740 c-90 -116 -164 -214 -166 -219 -1 -4 29 -47 68 -96 38
-48 67 -91 64 -97 -3 -5 -27 3 -52 19 -394 231 -507 292 -519 280 -6 -6 -154
-214 -327 -462 l-316 -450 0 -128 0 -128 23 12 c165 87 1679 968 1700 990 26
29 27 32 27 149 l0 121 -112 72 c-62 41 -139 90 -170 110 l-58 36 -162 -209z"/>
<path d="M12330 13775 c-168 -97 -313 -184 -322 -193 -26 -25 -35 -80 -15 -88
10 -4 129 60 322 171 168 98 315 185 326 194 25 20 32 84 9 88 -8 2 -152 -76
-320 -172z"/>
<path d="M11400 13240 c-112 -66 -210 -127 -217 -136 -16 -22 -17 -70 -2 -79
5 -4 107 49 226 117 175 100 218 129 231 155 17 36 11 63 -15 62 -10 0 -110
-54 -223 -119z"/>
<path d="M10548 12748 c-194 -112 -251 -150 -264 -174 -19 -34 -13 -64 11 -64
23 0 486 268 513 296 27 31 30 84 4 84 -9 0 -128 -64 -264 -142z"/>
<path d="M18102 12801 l-113 -66 1 -712 c1 -703 0 -713 -20 -733 -29 -29 -25
-33 29 -27 100 12 206 89 229 166 17 56 16 1388 -1 1417 -12 20 -15 19 -125
-45z"/>
<path d="M9902 12373 c-7 -3 -151 -85 -320 -183 -247 -144 -309 -184 -321
-208 -16 -34 -9 -62 14 -62 26 0 607 339 638 372 40 42 32 98 -11 81z"/>
<path d="M17447 11394 c-37 -64 -64 -114 -59 -112 4 1 49 27 99 56 67 39 94
60 103 83 14 33 13 35 -41 67 l-35 21 -67 -115z"/>
<path d="M7555 11146 l-70 -42 -3 -193 c-1 -106 1 -191 5 -188 105 58 153 92
153 108 0 25 -4 24 -67 -11 -29 -16 -55 -30 -58 -30 -3 0 -5 26 -5 59 l0 59
58 34 c38 22 58 41 60 56 4 28 2 28 -56 -8 -27 -16 -52 -30 -56 -30 -3 0 -6
26 -6 58 l0 57 63 35 c43 25 63 43 65 58 4 29 -1 28 -83 -22z"/>
<path d="M7338 11022 c-69 -42 -100 -74 -85 -88 3 -3 19 2 36 10 16 9 32 16
36 16 3 0 5 -72 5 -161 0 -124 3 -160 13 -157 9 3 13 51 17 176 l5 171 35 23
c35 24 53 59 28 57 -7 0 -48 -22 -90 -47z"/>
<path d="M7011 10831 c-55 -51 -78 -143 -47 -186 11 -15 21 -17 58 -12 60 8
83 -8 73 -51 -6 -29 -64 -92 -85 -92 -6 0 -18 8 -29 19 -27 27 -48 11 -35 -26
8 -23 16 -29 45 -31 65 -6 138 83 139 168 0 55 -12 65 -76 65 -74 0 -88 18
-59 72 25 47 66 64 93 40 21 -19 32 -13 32 18 0 52 -61 61 -109 16z"/>
<path d="M17180 10691 c-97 -31 -163 -72 -230 -140 -108 -111 -159 -251 -131
-358 7 -26 15 -62 18 -79 5 -31 4 -32 -42 -38 -65 -10 -74 -36 -39 -111 7 -16
18 -56 24 -88 7 -33 22 -69 36 -86 18 -21 27 -49 35 -107 32 -239 97 -372 206
-425 40 -19 61 -22 145 -21 l98 2 0 -30 c0 -17 5 -50 11 -73 10 -40 8 -46 -25
-102 -42 -69 -44 -94 -13 -123 56 -52 163 -66 281 -36 126 33 284 135 335 218
23 36 23 48 8 247 -9 125 -9 127 19 198 23 58 32 71 50 71 36 0 116 61 149
114 26 43 30 59 30 120 0 103 -38 164 -119 190 -17 6 -18 14 -11 99 14 196
-42 319 -157 343 -17 4 -31 17 -38 34 -16 39 -82 103 -138 133 -87 47 -183 67
-322 66 -91 0 -140 -5 -180 -18z"/>
<path d="M15326 9918 c-8 -13 -18 -36 -22 -51 -5 -21 -12 -28 -28 -26 -53 4
-52 4 -180 -117 -53 -51 -66 -96 -66 -229 0 -184 52 -360 147 -501 60 -88 70
-111 108 -254 20 -73 40 -140 46 -149 7 -13 72 -239 125 -441 76 -283 187
-486 297 -539 54 -26 135 -27 208 -4 84 27 319 182 634 416 l172 128 6 212
c13 459 88 705 247 809 38 25 -150 -26 -225 -61 -93 -43 -185 -124 -520 -455
-170 -168 -312 -306 -315 -306 -27 0 -322 578 -341 668 -9 47 -8 74 9 171 12
64 23 177 27 251 3 74 8 149 11 167 5 28 3 33 -19 38 -30 8 -82 -17 -98 -47
-6 -12 -19 -48 -28 -81 -9 -33 -21 -62 -28 -64 -27 -9 -63 169 -63 317 0 113
-18 163 -62 168 -19 2 -31 -3 -42 -20z"/>
<path d="M12579 8938 c-2 -128 -2 -402 -1 -609 l4 -375 58 -32 c44 -25 60 -29
66 -20 4 7 26 51 49 97 l41 85 23 -87 c26 -96 22 -90 104 -137 l59 -33 53 58
c30 32 57 70 60 86 4 18 -9 83 -39 190 -25 89 -46 172 -46 184 0 29 14 40 113
89 63 32 82 46 81 61 0 12 -108 150 -247 315 -208 249 -255 300 -302 328 -31
17 -60 32 -65 32 -4 0 -9 -105 -11 -232z"/>
<path d="M18238 9013 c-82 -86 -158 -243 -203 -420 -14 -54 -59 -296 -100
-538 -41 -242 -79 -463 -85 -491 l-11 -52 -117 -40 c-219 -76 -692 -199 -855
-223 -101 -15 -258 -7 -397 21 -103 20 -108 20 -252 3 -124 -14 -148 -20 -148
-33 0 -34 67 -73 145 -85 46 -7 48 -8 25 -17 -91 -37 -156 -76 -224 -134 -42
-36 -83 -64 -89 -61 -7 3 -208 118 -447 256 -239 138 -443 251 -453 251 -10 0
-30 -6 -45 -14 -27 -14 -42 -6 -622 330 -327 189 -601 344 -608 344 -18 0 -52
-60 -52 -94 0 -49 190 -1159 202 -1184 7 -13 42 -43 78 -67 79 -52 1743 -1013
1785 -1031 24 -10 37 -10 65 0 50 18 960 543 988 570 14 13 26 40 29 63 l5 40
-292 169 c-264 152 -289 169 -268 178 13 6 124 11 268 11 216 1 251 3 299 20
l53 20 20 -25 c35 -43 99 -158 128 -227 57 -141 65 -192 64 -393 -1 -170 -3
-192 -28 -275 -87 -293 -299 -568 -588 -763 -830 -560 -2286 -671 -3343 -255
-609 240 -1003 608 -1101 1028 l-14 60 5 -77 c17 -233 130 -454 340 -663 60
-61 152 -139 203 -175 l92 -65 -5 -40 c-3 -22 -14 -141 -25 -265 -11 -124 -61
-659 -111 -1190 l-90 -965 23 -18 c27 -22 95 -18 113 6 6 8 59 437 119 954
150 1302 160 1391 167 1397 3 4 53 -16 111 -43 337 -158 750 -265 1182 -306
88 -8 192 -15 233 -15 l73 0 0 -207 c2 -744 28 -2475 38 -2485 6 -6 33 -13 59
-15 37 -4 53 -1 70 13 l22 19 11 975 c5 536 13 1137 16 1336 l6 361 133 6
c153 8 404 38 558 68 59 12 111 19 114 16 3 -4 -15 -221 -39 -484 -29 -313
-41 -482 -35 -490 11 -15 73 -17 82 -3 4 6 35 227 71 493 35 265 67 493 72
507 6 20 20 28 83 46 l76 21 27 -88 c14 -48 26 -99 26 -113 0 -14 -22 -167
-50 -341 -27 -174 -50 -319 -50 -323 0 -4 29 -25 63 -45 86 -50 198 -78 319
-80 l97 -2 -6 -25 c-3 -14 -9 -34 -14 -46 -7 -20 -4 -21 65 -21 48 -1 84 -7
111 -19 45 -21 49 -35 61 -169 l6 -81 -50 -44 c-27 -25 -77 -60 -110 -78 l-61
-33 -11 38 c-5 21 -15 85 -21 143 -6 58 -15 109 -20 115 -5 5 -9 0 -9 -14 0
-12 -13 -36 -29 -52 -23 -23 -38 -29 -71 -29 -43 0 -57 10 -113 83 -38 51 -78
68 -166 74 -123 8 -134 -1 -180 -148 -12 -36 -21 -68 -21 -71 0 -3 30 -7 68
-10 45 -3 86 -14 126 -33 64 -30 126 -80 126 -100 0 -26 -25 -21 -79 17 -65
45 -134 68 -208 68 -45 0 -58 -4 -78 -26 -14 -15 -23 -30 -20 -34 2 -4 31 -10
64 -13 33 -3 84 -16 113 -30 54 -24 128 -81 128 -98 0 -24 -35 -18 -83 15 -69
47 -129 67 -204 68 -54 0 -66 -3 -83 -23 -27 -33 -25 -39 15 -39 53 0 154 -37
208 -76 52 -38 66 -59 48 -77 -8 -8 -18 -5 -38 11 -55 45 -152 84 -216 89 -67
4 -100 -7 -124 -44 -14 -21 -13 -21 35 -21 77 -1 173 -41 256 -106 20 -16 16
-46 -6 -46 -7 0 -35 16 -62 35 -119 84 -273 90 -345 11 l-24 -26 55 0 c64 0
174 -31 235 -67 78 -46 163 -166 163 -233 0 -30 -56 -67 -153 -103 -55 -19
-81 -22 -222 -22 -143 0 -166 3 -216 23 -31 12 -73 38 -93 58 l-36 35 0 -32
c0 -105 178 -181 386 -165 264 20 472 144 567 338 49 102 80 135 204 220 57
38 110 80 118 91 8 12 15 42 15 67 0 25 4 50 8 56 4 5 34 25 67 43 33 19 83
52 110 73 l50 40 3 -28 c49 -436 83 -699 92 -708 15 -15 106 -14 121 1 10 10
4 104 -30 466 l-42 454 22 54 c17 43 23 85 29 204 l7 150 66 127 c37 70 67
133 67 140 0 30 -64 145 -118 211 -77 95 -105 143 -99 170 2 12 16 65 31 117
14 52 37 177 51 276 24 172 46 281 63 309 4 7 36 44 72 82 70 76 103 96 775
477 437 248 618 403 749 639 31 57 74 176 91 254 l7 33 -50 -25 c-82 -41 -173
-58 -317 -58 -262 0 -570 72 -862 201 -137 61 -148 67 -135 76 7 4 119 13 249
21 427 26 803 63 911 91 72 18 130 58 159 109 32 56 54 132 138 487 128 542
158 723 158 943 0 138 -3 153 -45 280 -22 66 -128 164 -237 219 -51 25 -103
46 -115 46 -12 0 -38 -16 -58 -37z m-3614 -1970 c71 -37 176 -176 176 -236 0
-88 -109 -70 -211 34 -83 85 -118 198 -66 218 25 10 59 5 101 -16z"/>
<path d="M12991 6845 c-70 -20 -108 -43 -121 -74 -6 -14 -29 -38 -51 -54 -48
-33 -59 -59 -59 -142 0 -54 4 -68 26 -95 95 -112 445 -154 667 -79 109 37 125
59 129 180 3 84 -7 106 -64 135 -16 8 -28 23 -28 33 0 27 -53 68 -113 87 -74
24 -313 29 -386 9z"/>
<path d="M3610 5889 c-1230 -712 -1260 -729 -1295 -729 -20 0 -39 8 -51 21
-17 19 -20 43 -24 220 l-5 198 -355 -204 -355 -203 -3 -579 c-2 -395 1 -600 9
-646 24 -147 130 -288 251 -332 70 -26 264 -28 318 -3 l35 17 -45 -5 c-54 -6
-86 9 -117 55 l-23 34 0 412 0 412 1220 704 1220 704 0 188 c0 103 -1 187 -2
186 -2 -1 -352 -203 -778 -450z"/>
<path d="M13520 6278 c0 -47 -61 -81 -185 -103 -111 -19 -199 -19 -309 0 -99
17 -150 36 -184 68 l-23 22 7 -130 c3 -72 11 -141 18 -155 31 -68 172 -105
367 -97 141 6 226 27 268 66 27 25 28 31 40 185 6 87 9 161 6 164 -3 3 -5 -6
-5 -20z"/>
<path d="M18493 5798 c-46 -33 -83 -67 -83 -75 0 -8 7 -44 15 -81 8 -37 71
-368 141 -737 69 -368 127 -672 130 -676 2 -4 13 -53 24 -110 11 -56 25 -106
32 -111 17 -10 49 -10 66 1 21 13 13 83 -109 931 -60 421 -114 800 -120 843
-6 42 -12 77 -13 77 0 -1 -38 -28 -83 -62z"/>
<path d="M17577 5279 c-53 -28 -58 -32 -53 -57 3 -15 29 -151 56 -302 28 -151
55 -285 60 -297 7 -18 18 -23 44 -23 18 0 38 6 44 13 6 8 -5 117 -38 344 -26
182 -49 336 -51 341 -2 6 -30 -3 -62 -19z"/>
<path d="M16916 5113 c-3 -8 -6 -38 -6 -66 0 -29 -32 -519 -70 -1090 -38 -572
-67 -1043 -64 -1048 8 -13 70 -11 82 4 5 6 60 476 122 1042 62 567 116 1059
120 1095 5 36 7 66 7 66 -1 1 -43 4 -94 7 -76 5 -92 3 -97 -10z"/>
</g>
</svg>
