<svg width="37" height="34" viewBox="0 0 37 34" fill="none" xmlns="http://www.w3.org/2000/svg">
<g clip-path="url(#clip0_211_2076)">
<path d="M8.81751 10.2338C7.40398 10.2338 6.04836 10.7953 5.04885 11.7948L1.78686 15.0568C0.787349 16.0563 0.22583 17.4119 0.22583 18.8254C0.22583 21.769 2.61202 24.1552 5.55554 24.1552C6.96907 24.1552 8.32469 23.5936 9.3242 22.5941L11.5805 20.3378C11.5805 20.3377 11.5806 20.3378 11.5805 20.3378L18.1547 13.7636C18.6321 13.2862 19.2795 13.018 19.9546 13.018C21.0849 13.018 22.0431 13.7547 22.3753 14.774L24.4501 12.6992C23.5036 11.2168 21.8439 10.2338 19.9546 10.2338C18.5411 10.2338 17.1855 10.7953 16.186 11.7948L7.35544 20.6253C6.87807 21.1027 6.23064 21.3709 5.55554 21.3709C4.14973 21.3709 3.01011 20.2313 3.01011 18.8254C3.01011 18.1503 3.27828 17.5029 3.75564 17.0255L7.01761 13.7636C7.49498 13.2862 8.14241 13.018 8.81751 13.018C9.94779 13.018 10.9059 13.7547 11.2382 14.7741L13.313 12.6993C12.3665 11.2168 10.7068 10.2338 8.81751 10.2338Z" fill="#394149"/>
<path d="M18.4925 20.6253C18.0152 21.1027 17.3677 21.3709 16.6926 21.3709C15.5626 21.3709 14.6044 20.6344 14.2721 19.6152L12.1974 21.69C13.1439 23.1723 14.8035 24.1552 16.6926 24.1552C18.1062 24.1552 19.4618 23.5936 20.4613 22.5941L29.2918 13.7636C29.7692 13.2862 30.4166 13.018 31.0917 13.018C32.4976 13.018 33.6372 14.1577 33.6372 15.5635C33.6372 16.2386 33.369 16.886 32.8916 17.3634L29.6297 20.6253C29.1523 21.1027 28.5049 21.3709 27.8298 21.3709C26.6996 21.3709 25.7414 20.6343 25.4092 19.615L23.3344 21.6898C24.2809 23.1722 25.9405 24.1552 27.8298 24.1552C29.2433 24.1552 30.5989 23.5936 31.5984 22.5941L34.8604 19.3321C35.8599 18.3326 36.4214 16.977 36.4214 15.5635C36.4214 12.62 34.0353 10.2338 31.0917 10.2338C29.6782 10.2338 28.3226 10.7953 27.3231 11.7948L18.4925 20.6253Z" fill="#394149"/>
</g>
<defs>
<clipPath id="clip0_211_2076">
<rect width="36.1956" height="13.9214" fill="white" transform="translate(0.22583 10.2338)"/>
</clipPath>
</defs>
</svg>
