<svg width="39" height="34" viewBox="0 0 39 34" fill="none" xmlns="http://www.w3.org/2000/svg">
<g clip-path="url(#clip0_211_2052)">
<path d="M38.5803 14.1802C38.5842 14.1512 38.5842 14.1219 38.5803 14.0928C38.584 14.0692 38.584 14.0451 38.5803 14.0214L38.2966 11.98C38.2557 11.7358 38.1463 11.5076 37.9807 11.3208L37.932 11.2652L37.843 11.1778L32.9332 7.03162L33.0709 7.16666C32.9582 7.03449 32.8168 6.92877 32.6569 6.85729C32.4971 6.78581 32.3229 6.75038 32.1473 6.75363H30.6565C30.4141 6.74892 30.1772 6.82448 29.984 6.96809C29.7812 6.82534 29.537 6.75017 29.2873 6.75363H27.7965C27.601 6.75052 27.4081 6.79809 27.2374 6.89154C27.0667 6.98499 26.9242 7.121 26.8243 7.2858C26.6703 7.52117 26.6125 7.80477 26.6622 8.08009L26.8486 9.36683C26.7251 9.29822 26.5854 9.26262 26.4435 9.26359H19.2246C18.9656 9.26518 18.7126 9.3396 18.4954 9.47803C18.2855 9.60689 18.1169 9.79139 18.0093 10.0102L17.4503 9.54158C17.2303 9.34199 16.9398 9.23381 16.6401 9.23975H5.31357C5.05365 9.24439 4.7995 9.31558 4.57631 9.44627C4.27097 9.62148 4.04719 9.90637 3.95245 10.2406L0.355175 22.0358C0.287961 22.2301 0.281349 22.4397 0.336186 22.6378C0.391022 22.8358 0.504824 23.0134 0.663053 23.1478C0.704282 23.182 0.747573 23.2139 0.792687 23.2431C0.792687 23.2431 0.719758 23.1954 0.679248 23.1557L5.58906 27.3098C5.79675 27.4973 6.0683 27.6021 6.35059 27.6037H17.7663C18.027 27.5971 18.2813 27.5231 18.5036 27.3893C18.6293 27.3219 18.7417 27.2332 18.8357 27.1271L18.8763 27.0715L18.9411 26.9921L18.9897 26.9047L19.5244 27.3575C19.7291 27.5375 19.9948 27.6365 20.2698 27.6355H31.7097C31.9702 27.627 32.224 27.5532 32.447 27.421C32.5699 27.3496 32.6817 27.2613 32.7792 27.1589L32.8197 27.1033L32.8845 27.0239C32.919 26.9736 32.9489 26.9205 32.9736 26.865C33.0001 26.8169 33.0218 26.7663 33.0385 26.7141L36.3198 15.9436V15.8482C36.3238 15.8113 36.3238 15.774 36.3198 15.737V15.6656C36.3237 15.6419 36.3237 15.6178 36.3198 15.5941C36.3234 15.5438 36.3234 15.4934 36.3198 15.4431H37.373C37.4646 15.4514 37.5569 15.4514 37.6485 15.4431H37.7214C37.7807 15.4258 37.8378 15.4018 37.8916 15.3717H37.9726L38.1184 15.2605L38.1832 15.2128L38.2966 15.0698V15.0222L38.3777 14.8871C38.3731 14.8609 38.3731 14.834 38.3777 14.8077C38.3734 14.7948 38.3734 14.7809 38.3777 14.768C38.3949 14.7214 38.4085 14.6736 38.4182 14.625C38.4144 14.6094 38.4144 14.593 38.4182 14.5774C38.4142 14.5537 38.4142 14.5295 38.4182 14.5059C38.4182 14.5059 38.5803 14.1961 38.5803 14.1802Z" fill="black"/>
<path d="M16.9723 10.1453C17.0153 10.1834 17.0453 10.2335 17.0584 10.2889C17.0714 10.3443 17.0668 10.4023 17.0452 10.455L13.4561 22.2423C13.4109 22.371 13.3184 22.4786 13.1968 22.5442C13.0978 22.609 12.9833 22.6474 12.8646 22.6554H1.45705C1.35963 22.6508 1.26733 22.6112 1.19778 22.5442C1.15641 22.5066 1.12737 22.4579 1.11438 22.4041C1.10139 22.3504 1.10505 22.294 1.12487 22.2423L4.72214 10.455C4.76358 10.3247 4.85314 10.2143 4.97329 10.1453C5.07388 10.085 5.18787 10.0496 5.30548 10.042H16.713C16.8097 10.0429 16.9024 10.0798 16.9723 10.1453ZM11.0173 19.8674L13.1644 12.83H7.15274L5.0138 19.8674H11.0173ZM27.8613 10.2644C27.9002 10.3088 27.9489 10.3439 28.0036 10.3673C28.0583 10.3907 28.1177 10.4017 28.1773 10.3994H29.66C29.7164 10.4 29.772 10.3864 29.8217 10.36C29.8713 10.3336 29.9132 10.2952 29.9435 10.2485C29.9698 10.212 29.9885 10.1707 29.9982 10.1271C30.0079 10.0834 30.0086 10.0383 30.0002 9.99436L29.7086 7.89743C29.6808 7.80038 29.6309 7.71077 29.5628 7.63532C29.5238 7.59097 29.4752 7.55581 29.4205 7.53243C29.3658 7.50905 29.3064 7.49807 29.2468 7.50029H27.7641C27.7076 7.49975 27.652 7.51332 27.6024 7.53973C27.5528 7.56614 27.5108 7.6045 27.4805 7.65121C27.4238 7.76241 27.3995 7.83389 27.4238 7.89743L27.7236 9.99436C27.739 10.0965 27.7872 10.1911 27.8613 10.2644ZM32.5686 7.88155C32.5408 7.78449 32.4909 7.69488 32.4227 7.61943C32.3854 7.57525 32.3382 7.5401 32.2848 7.51668C32.2315 7.49326 32.1733 7.48222 32.1149 7.4844H30.6241C30.5686 7.48285 30.5136 7.49606 30.4651 7.52263C30.4166 7.54919 30.3764 7.58814 30.3486 7.63532C30.2947 7.70578 30.2714 7.7943 30.2838 7.88155L30.5836 9.97847C30.6024 10.0795 30.6501 10.1732 30.7213 10.2485C30.7609 10.292 30.8097 10.3266 30.8643 10.3499C30.9188 10.3732 30.9778 10.3847 31.0373 10.3836H32.5281C32.5835 10.3843 32.638 10.3707 32.6863 10.3442C32.7347 10.3177 32.7751 10.2793 32.8035 10.2326C32.8317 10.1971 32.8514 10.1558 32.8612 10.1118C32.8711 10.0679 32.8707 10.0223 32.8602 9.97847L32.5686 7.88155ZM26.5569 11.0587L26.411 10.0261H19.2246C19.1118 10.0322 19.0026 10.0679 18.9086 10.1294C18.849 10.1613 18.797 10.2055 18.7565 10.259C18.7159 10.3125 18.6877 10.3739 18.6737 10.4392L18.0742 12.409C18.0502 12.4582 18.042 12.5134 18.0507 12.5673C18.0594 12.6212 18.0845 12.6712 18.1228 12.7108C18.1911 12.7738 18.2803 12.8105 18.3739 12.8141H27.1079L24.9608 19.8515H16.2512C16.1389 19.854 16.0295 19.887 15.9353 19.9468C15.8207 20.0182 15.737 20.1285 15.7003 20.2566L15.0926 22.2264C15.0728 22.277 15.0676 22.3319 15.0776 22.3851C15.0876 22.4384 15.1124 22.4879 15.1493 22.5282C15.2155 22.5954 15.3054 22.6352 15.4005 22.6394H26.8405C26.9588 22.6295 27.0728 22.5913 27.1726 22.5282C27.2923 22.4623 27.382 22.3545 27.4238 22.2264L30.7132 11.4559H27.0106C26.9519 11.457 26.8935 11.4463 26.8392 11.4244C26.7848 11.4026 26.7357 11.37 26.6947 11.3288C26.6277 11.2567 26.5803 11.1693 26.5569 11.0746V11.0587Z" fill="white"/>
</g>
<defs>
<clipPath id="clip0_211_2052">
<rect width="38.2838" height="20.8821" fill="white" transform="translate(0.299408 6.75342)"/>
</clipPath>
</defs>
</svg>
