<svg width="34" height="34" viewBox="0 0 34 34" fill="none" xmlns="http://www.w3.org/2000/svg">
<g clip-path="url(#clip0_211_2049)">
<path fill-rule="evenodd" clip-rule="evenodd" d="M10.0459 10.3135L3.09509 17.1944C4.48538 18.5708 6.07357 19.7307 7.80514 20.6382C8.28376 21.895 9.03398 23.0736 10.0558 24.0852C13.9001 27.8908 20.1329 27.8908 23.9772 24.0852C24.999 23.0736 25.7492 21.895 26.2278 20.6381C27.9594 19.7307 29.5476 18.5708 30.9379 17.1944L23.9927 10.3191C23.9875 10.314 23.9824 10.3088 23.9772 10.3037C20.1329 6.49805 13.9001 6.49805 10.0558 10.3037C10.0525 10.307 10.0492 10.3102 10.0459 10.3135ZM23.3121 21.8796C21.2865 22.5563 19.1602 22.9029 17.0165 22.9029C14.8728 22.9029 12.7465 22.5563 10.721 21.8796C10.9404 22.1679 11.1827 22.4445 11.4479 22.707C14.5234 25.7516 19.5096 25.7516 22.585 22.707C22.8502 22.4445 23.0926 22.1679 23.3121 21.8796ZM11.5907 11.544C12.113 11.8856 12.6683 12.1779 13.2494 12.4162C14.4437 12.9059 15.7237 13.158 17.0165 13.158C18.3092 13.158 19.5893 12.9059 20.7836 12.4162C21.3647 12.1779 21.92 11.8856 22.4423 11.544C19.4053 8.68327 14.6277 8.68327 11.5907 11.544Z" fill="#3B4158"/>
</g>
<defs>
<clipPath id="clip0_211_2049">
<rect width="27.8428" height="19.4899" fill="white" transform="translate(3.09509 7.44946)"/>
</clipPath>
</defs>
</svg>
