<svg width="34" height="34" viewBox="0 0 34 34" fill="none" xmlns="http://www.w3.org/2000/svg">
<g clip-path="url(#clip0_211_2046)">
<path fill-rule="evenodd" clip-rule="evenodd" d="M9.97907 3.37976C13.8233 3.37976 16.9398 6.49617 16.9398 10.3405V3.37976H23.9005C27.7447 3.37976 30.8612 6.49617 30.8612 10.3405C30.8612 14.1847 27.7447 17.3012 23.9005 17.3012C27.7447 17.3012 30.8612 20.4176 30.8612 24.2618C30.8612 26.1707 30.0928 27.9001 28.8485 29.1576L28.8224 29.1838L28.7993 29.2068C27.5415 30.4529 25.8109 31.2225 23.9005 31.2225C22.003 31.2225 20.2829 30.4633 19.0273 29.2321C19.011 29.2161 18.9947 29.2 18.9785 29.1838C18.9632 29.1686 18.9481 29.1533 18.933 29.1379C17.7001 27.882 16.9398 26.1607 16.9398 24.2618C16.9398 28.1061 13.8233 31.2225 9.97907 31.2225C6.13478 31.2225 3.01837 28.1061 3.01837 24.2618V17.3012H9.97907C6.13478 17.3012 3.01837 14.1847 3.01837 10.3405C3.01837 6.49617 6.13478 3.37976 9.97907 3.37976ZM15.5476 10.3405C15.5476 13.4159 13.0545 15.909 9.97907 15.909V4.7719C13.0545 4.7719 15.5476 7.26503 15.5476 10.3405ZM29.469 24.2618C29.469 21.1864 26.9759 18.6933 23.9005 18.6933C20.825 18.6933 18.3319 21.1864 18.3319 24.2618H29.469ZM4.41051 18.6933V24.2618C4.41051 27.3373 6.90364 29.8304 9.97907 29.8304C13.0545 29.8304 15.5476 27.3373 15.5476 24.2618V18.6933H4.41051ZM18.3319 15.909V4.7719H23.9005C26.9759 4.7719 29.469 7.26503 29.469 10.3405C29.469 13.4159 26.9759 15.909 23.9005 15.909H18.3319Z" fill="#263238"/>
</g>
<defs>
<clipPath id="clip0_211_2046">
<rect width="27.8428" height="27.8428" fill="white" transform="translate(3.01837 3.37976)"/>
</clipPath>
</defs>
</svg>
