<svg width="34" height="34" viewBox="0 0 34 34" fill="none" xmlns="http://www.w3.org/2000/svg">
<g clip-path="url(#clip0_211_2056)">
<path d="M31.7852 9.93078C31.7852 9.95432 31.7852 9.98374 31.779 10.0014C31.7484 10.2309 31.7484 10.4604 31.7667 10.6957C31.779 10.7546 31.7913 10.8134 31.8403 10.8605C31.92 10.9487 32.0426 10.9311 32.0917 10.8252C32.1162 10.7722 32.1162 10.7193 32.1039 10.6663C32.0426 10.4427 32.0304 10.2073 32.0243 9.97785C32.0243 9.96609 32.0243 9.94843 32.0243 9.93078C32.0917 9.9249 32.153 9.91901 32.2082 9.91901C32.2511 9.91313 32.2879 9.90724 32.3186 9.88959C32.4105 9.84252 32.4105 9.74249 32.3124 9.69541C32.2756 9.67776 32.2266 9.67188 32.1837 9.67188C32.0304 9.67776 31.8771 9.67776 31.7238 9.67776C31.6687 9.67776 31.6135 9.68365 31.5583 9.68953C31.5276 9.69541 31.4909 9.69541 31.4664 9.71307C31.4234 9.73072 31.3989 9.76014 31.3989 9.80133C31.405 9.84252 31.4234 9.86606 31.4664 9.88371C31.4909 9.90136 31.5215 9.90724 31.5522 9.90724C31.6257 9.91313 31.7055 9.9249 31.7852 9.93078ZM33.4711 10.2015C33.4711 10.2073 33.4772 10.2132 33.4772 10.2132C33.5018 10.3721 33.5263 10.5251 33.5447 10.6781C33.5508 10.731 33.557 10.7781 33.5937 10.8193C33.6734 10.9193 33.7961 10.9076 33.8512 10.8016C33.8758 10.7487 33.8819 10.6957 33.8696 10.6369C33.8328 10.4604 33.8144 10.2838 33.7777 10.1132C33.7531 10.0073 33.7225 9.90724 33.6918 9.8131C33.6734 9.75426 33.6305 9.71306 33.557 9.70718C33.4834 9.69541 33.4282 9.73072 33.3975 9.78368C33.3608 9.83075 33.3301 9.87782 33.3056 9.93078C33.2627 10.0249 33.2259 10.1191 33.1769 10.2073C33.1707 10.2309 33.1646 10.2485 33.1523 10.2662C33.1462 10.2544 33.1401 10.2485 33.1401 10.2485C33.0603 10.1014 32.9868 9.95432 32.9071 9.8131C32.8948 9.80133 32.8887 9.78956 32.8826 9.77779C32.8458 9.72484 32.8029 9.69541 32.7354 9.69541C32.6741 9.7013 32.625 9.7366 32.5944 9.78956C32.5821 9.8131 32.5821 9.83075 32.576 9.85429C32.5515 10.0426 32.5208 10.2309 32.4963 10.4192C32.484 10.5251 32.4779 10.631 32.4779 10.7369C32.4718 10.7605 32.4779 10.7899 32.4902 10.8134C32.5025 10.8605 32.5392 10.8899 32.5883 10.8958C32.6496 10.9017 32.6925 10.884 32.7109 10.8369C32.7293 10.8016 32.7354 10.7722 32.7416 10.7428C32.7661 10.6369 32.7845 10.5369 32.8029 10.4368C32.8151 10.378 32.8212 10.3309 32.8397 10.2662C32.8519 10.2897 32.8641 10.3074 32.8764 10.325C32.9316 10.3956 32.9868 10.4662 33.0542 10.5251C33.1217 10.5722 33.1769 10.5663 33.232 10.5133C33.2443 10.5015 33.2504 10.4957 33.2627 10.4839C33.3179 10.4015 33.3853 10.3191 33.4405 10.2368C33.4527 10.225 33.4589 10.2132 33.4711 10.2015Z" fill="#3A3B7B"/>
<path d="M19.3449 10.0463C19.3023 10.1582 19.2941 10.2387 19.3138 10.3057C19.3355 10.3967 19.392 10.4265 19.4685 10.4034C20.1886 10.2325 21.7677 10.7176 22.3523 10.8528C22.4902 10.8812 22.6024 10.7104 22.5083 10.5572C22.371 10.4089 20.7926 9.77386 20.1903 9.73924C19.9543 9.72643 19.5323 9.66833 19.3449 10.0463Z" fill="#3A3B7B"/>
<path d="M25.5161 7.99069C25.5929 8.03321 25.6358 8.07376 25.657 8.11908C25.6885 8.17852 25.6719 8.21964 25.6189 8.24062C25.1429 8.4636 24.5094 9.42354 24.2538 9.75461C24.1918 9.83077 24.0488 9.78651 24.0272 9.66127C24.0317 9.51966 24.5931 8.47791 24.9065 8.19417C25.0297 8.08339 25.2331 7.86603 25.5161 7.99069Z" fill="#3A3B7B"/>
<path d="M21.7254 7.51819C21.8176 7.45149 21.9134 7.42812 21.9623 7.47146C22.6805 8.06096 23.0614 8.99449 23.2972 9.84911C23.3061 9.86902 23.3067 9.89759 23.2996 9.9274C23.2966 9.95287 23.2772 9.97978 23.2464 10.0006C23.2135 10.0236 23.1852 10.0306 23.1719 10.0108C22.8571 9.59988 21.0593 8.0011 21.7254 7.51819Z" fill="#3A3B7B"/>
<path d="M6.51689 17.7386C6.68901 17.6156 6.87615 17.5132 7.07417 17.4338C7.28135 17.3769 7.50218 17.3863 7.70328 17.4607C7.90434 17.535 8.07479 17.6701 8.18873 17.8456C8.29066 18.0207 8.33053 18.2228 8.30239 18.4216C8.27426 18.6202 8.17962 18.8048 8.03268 18.9474C7.91878 19.0631 7.78946 19.1638 7.64818 19.247C7.01846 19.6374 6.38313 20.0065 5.74783 20.3969C5.61783 20.4947 5.47993 20.5823 5.33543 20.659C5.11565 20.7642 4.86447 20.7924 4.62533 20.7387C4.38619 20.685 4.17413 20.5527 4.02581 20.3649C3.91494 20.2318 3.82137 20.0863 3.74717 19.9316C3.1453 18.7175 2.52115 17.5086 1.94157 16.2731C1.67407 15.7382 1.45673 15.1231 1.24496 14.5294C1.15334 14.3569 1.13545 14.1569 1.19509 13.972C1.25474 13.787 1.38722 13.6316 1.56436 13.539C1.74149 13.4463 1.9493 13.4236 2.14359 13.4757C2.33788 13.5279 2.50332 13.6507 2.60473 13.818C2.91644 14.2156 3.19236 14.6379 3.42952 15.0804C4.03138 16.1501 4.60539 17.2198 5.18497 18.2574C5.21872 18.3148 5.25593 18.3701 5.29642 18.4233C5.73265 18.2472 6.14295 18.0171 6.51689 17.7386Z" fill="#3A3B7B"/>
<path d="M12.7398 17.3655C11.3634 18.9112 9.05619 18.5208 7.89704 16.5311C7.07224 15.119 6.92736 12.787 8.72184 11.3161C9.10503 11.0081 9.56323 10.7984 10.0537 10.7063C10.6551 10.6236 11.2684 10.7254 11.8059 10.9973C12.3433 11.2691 12.7775 11.6971 13.0464 12.22C14.0272 13.9316 13.8879 16.1139 12.7398 17.3655ZM12.1826 13.7604C12.0363 13.3398 11.743 12.9808 11.3522 12.7442C11.1311 12.5929 10.8624 12.5194 10.5914 12.5359C10.3204 12.5525 10.0636 12.6582 9.86426 12.8351C9.06736 13.5144 8.90014 15.1244 9.47971 16.0818C9.5536 16.2379 9.66208 16.3766 9.79766 16.4883C9.93324 16.6 10.0926 16.6819 10.2646 16.7282C10.4366 16.7746 10.617 16.7843 10.7934 16.7567C10.9697 16.7291 11.1376 16.6649 11.2854 16.5685C11.7173 16.247 12.0343 15.8044 12.192 15.3022C12.3499 14.7998 12.3407 14.2628 12.1659 13.7658L12.1826 13.7604Z" fill="#3A3B7B"/>
<path d="M18.3572 14.4343C18.2163 14.4634 18.0707 14.4651 17.9291 14.4394C17.7875 14.4137 17.6526 14.361 17.5325 14.2846C17.4274 14.2269 17.3369 14.1475 17.2675 14.0522C17.1982 13.957 17.1518 13.8481 17.1315 13.7335C17.1113 13.619 17.1177 13.5015 17.1504 13.3896C17.1831 13.2777 17.2413 13.1742 17.3207 13.0864C17.4591 12.9101 17.6554 12.7838 17.878 12.7281C18.4591 12.5662 19.0573 12.4676 19.6613 12.4339C19.794 12.4191 19.9285 12.4299 20.0568 12.4656C20.1851 12.5014 20.3047 12.5614 20.4085 12.6421C20.5123 12.7228 20.5983 12.8226 20.6614 12.9357C20.7245 13.0487 20.7634 13.1727 20.7759 13.3004C20.95 13.9276 20.9691 14.5851 20.8316 15.2206C20.3301 17.2745 18.6025 17.9805 16.6631 17.3226C16.1187 17.1467 15.6414 16.819 15.2922 16.3813C14.8264 15.8541 14.4962 15.2294 14.3281 14.5574C14.1919 13.9589 14.2068 13.3379 14.3716 12.7461C14.5364 12.1543 14.8463 11.609 15.2755 11.1556C15.6827 10.6628 16.2113 10.2749 16.8136 10.027C17.1942 9.82567 17.6395 9.76842 18.0619 9.86654C18.1577 9.89199 18.2447 9.94158 18.3138 10.0102C18.3829 10.0788 18.4317 10.1639 18.455 10.2566C18.4783 10.3494 18.4753 10.4465 18.4464 10.5377C18.4174 10.629 18.3636 10.7112 18.2904 10.7758C18.1512 10.8967 18 11.0042 17.839 11.0967C17.3435 11.3996 16.9124 11.7898 16.5684 12.2467C16.3429 12.5424 16.1876 12.8819 16.1134 13.2414C16.0393 13.6008 16.0481 13.9715 16.1393 14.3274C16.2657 14.8126 16.5461 15.2481 16.9417 15.5736C18.1678 16.6433 19.7616 15.611 19.483 14.1508C19.0762 14.2471 18.7195 14.3488 18.3572 14.4343Z" fill="#3A3B7B"/>
<path d="M25.8473 17.4511C24.0361 18.5208 21.9742 17.4511 21.5227 15.2046C21.194 13.6 21.8181 11.3536 24.0027 10.4978C24.4675 10.3196 24.9716 10.2571 25.4683 10.3159C26.0651 10.4208 26.6126 10.7027 27.0335 11.1221C27.4544 11.5414 27.7276 12.077 27.8145 12.6533C28.1823 14.5628 27.3464 16.6006 25.8473 17.4511ZM26.4771 13.8514C26.4765 13.4071 26.3127 12.9771 26.0145 12.6373C25.8551 12.427 25.6246 12.2764 25.3624 12.211C25.1002 12.1457 24.8225 12.1697 24.5767 12.2789C23.5959 12.6854 22.9048 14.1616 23.1556 15.2474C23.1748 15.4178 23.2324 15.5822 23.3247 15.7289C23.4169 15.8757 23.5414 16.0013 23.6895 16.0971C23.8375 16.1929 24.0056 16.2565 24.182 16.2834C24.3584 16.3103 24.5387 16.2999 24.7104 16.253C25.2289 16.0791 25.6778 15.7543 25.9945 15.3237C26.3112 14.8932 26.4799 14.3784 26.4771 13.8514Z" fill="#3A3B7B"/>
<path d="M29.646 17.9003C29.6187 18.0961 29.5115 18.2734 29.3479 18.3933C29.1843 18.5131 28.9779 18.5658 28.7739 18.5395C28.5699 18.5133 28.3852 18.4103 28.2603 18.2533C28.1354 18.0964 28.0806 17.8982 28.108 17.7024C28.1353 17.5067 28.2426 17.3294 28.4061 17.2095C28.5697 17.0896 28.7761 17.037 28.9801 17.0633C29.1841 17.0895 29.3688 17.1924 29.4937 17.3494C29.6186 17.5064 29.6734 17.7046 29.646 17.9003ZM29.1612 10.6849C29.2672 10.5296 29.4227 10.4113 29.6045 10.3476C29.7863 10.284 29.9846 10.2785 30.1699 10.3319C30.3583 10.3772 30.5247 10.4831 30.6414 10.6321C30.7581 10.7811 30.8179 10.964 30.8108 11.1503C30.7862 11.449 30.7397 11.7457 30.6715 12.0381C30.4876 13.0277 30.3092 14.0172 30.1142 14.996C30.025 15.3865 29.908 15.7609 29.7798 16.1566C29.7352 16.2804 29.6607 16.3922 29.5625 16.4829C29.5014 16.5512 29.4234 16.6035 29.3356 16.6351C29.2479 16.6668 29.1532 16.6767 29.0604 16.6639C28.9677 16.6511 28.8797 16.616 28.8048 16.562C28.7299 16.5079 28.6704 16.4365 28.6318 16.3546C28.5656 16.2075 28.5296 16.0494 28.5259 15.8892C28.5259 15.226 28.5259 14.5574 28.5705 13.8888C28.6463 12.9346 28.7953 11.9871 29.0163 11.054C29.0424 10.929 29.0914 10.8094 29.1612 10.701V10.6849Z" fill="#3A3B7B"/>
<path fill-rule="evenodd" clip-rule="evenodd" d="M4.16231 22.1985C4.09651 22.3395 4.07847 22.4966 4.11062 22.6479C4.13201 22.8473 4.179 23.0434 4.2505 23.2318C4.33978 23.4624 4.43968 23.6905 4.56285 23.9717C4.59118 24.0364 4.62078 24.1039 4.65176 24.175C4.81787 24.5558 5.02629 25.0426 5.3043 25.747C5.38299 25.9472 5.45287 26.1489 5.52323 26.3521C5.55166 26.4341 5.58019 26.5165 5.60939 26.599C5.71406 26.8925 5.89416 27.1561 6.13289 27.365C6.23426 27.4798 6.36872 27.5635 6.51949 27.6053C6.6732 27.648 6.83669 27.6453 6.98877 27.5976C7.14084 27.5498 7.27442 27.4593 7.37214 27.3377C7.46795 27.2184 7.52492 27.0747 7.536 26.9246C7.59816 26.6322 7.57694 26.329 7.47449 26.0471C7.3119 25.579 7.12668 25.1102 6.9131 24.6517L6.91212 24.6497C6.56076 23.9324 6.2036 23.22 5.82954 22.5073L5.82674 22.5023C5.71724 22.3167 5.57493 22.1507 5.40622 22.0118C5.29668 21.8879 5.1456 21.8043 4.97875 21.7755C4.80835 21.7461 4.6326 21.7758 4.48289 21.8592C4.34126 21.9368 4.22899 22.0556 4.16231 22.1985Z" fill="#3A3B7B"/>
<path fill-rule="evenodd" clip-rule="evenodd" d="M9.52889 20.4321C8.97797 20.2951 8.4026 20.2752 7.84289 20.3736C7.40936 20.4146 6.98299 20.5106 6.68692 20.7007C6.53633 20.7974 6.41459 20.9217 6.34686 21.0796C6.27877 21.2384 6.27008 21.42 6.32588 21.6223C6.42776 21.9929 6.56007 22.3532 6.69192 22.7124L6.71328 22.7705L6.71379 22.7718C7.11077 23.8153 7.51153 24.8552 7.91594 25.8915C7.96309 26.0548 8.02978 26.2123 8.11466 26.3609L8.11625 26.3637C8.22837 26.5483 8.37217 26.7134 8.54159 26.8521C8.62632 26.9284 8.73111 26.9811 8.84472 27.0047C8.95946 27.0285 9.07878 27.0216 9.18968 26.9847C9.30063 26.9478 9.39887 26.8825 9.47374 26.7957C9.5474 26.7103 9.59563 26.6074 9.61334 26.498C9.68644 26.2006 9.66302 25.8889 9.54618 25.6046C9.50973 25.509 9.48113 25.4112 9.45098 25.3083C9.44093 25.274 9.43075 25.2391 9.42 25.2035C10.3457 24.8562 11.3307 24.3892 11.677 23.3029C11.8127 22.9274 11.824 22.5209 11.7094 22.139C11.5947 21.7567 11.3594 21.4179 11.0359 21.1691C10.5956 20.8209 10.0812 20.5693 9.52889 20.4321ZM8.00179 21.7646C8.02002 21.7595 8.03838 21.7549 8.0568 21.7505C8.65946 21.6596 9.27605 21.7807 9.79304 22.0916C10.0209 22.2437 10.1142 22.4126 10.1302 22.5752C10.1468 22.7426 10.0834 22.924 9.95597 23.0984C9.71523 23.4278 9.27591 23.6915 8.87907 23.7406C8.58978 23.1012 8.29599 22.4359 8.00179 21.7646Z" fill="#3A3B7B"/>
<path d="M13.2018 19.2616C13.8579 18.9708 14.6706 18.9205 15.3065 19.125C15.4667 19.1698 15.6057 19.2666 15.6996 19.399C15.793 19.5305 15.8361 19.689 15.8217 19.8475C15.8208 19.9503 15.7945 20.0516 15.745 20.1429C15.6946 20.2358 15.6216 20.3157 15.5323 20.3759C15.4429 20.4361 15.3398 20.4747 15.2316 20.4885C15.1233 20.5024 15.0133 20.491 14.9106 20.4554L14.9028 20.4527L14.8955 20.4489C14.8429 20.4226 14.7871 20.4027 14.7294 20.3898L14.7258 20.389C14.2784 20.2749 13.8564 20.4639 13.7023 20.6961C13.6288 20.8068 13.6196 20.9185 13.6809 21.0202C13.7464 21.1291 13.9073 21.2512 14.2327 21.3383C14.3222 21.3619 14.4139 21.3847 14.507 21.4078C14.7643 21.4717 15.0317 21.5382 15.2903 21.6302L15.2913 21.6306C16.4843 22.0663 16.9285 22.9685 16.7764 23.8172C16.626 24.6564 15.8957 25.4202 14.7976 25.6003C14.398 25.6853 13.9821 25.6688 13.5912 25.5523C13.1993 25.4354 12.846 25.2222 12.5665 24.9338L12.5592 24.9262C12.4709 24.8176 12.4116 24.6899 12.3853 24.5544C12.361 24.4321 12.3738 24.3058 12.4219 24.1902C12.4698 24.0754 12.5507 23.9759 12.6552 23.9035C12.7655 23.8214 12.8986 23.7721 13.0378 23.7618C13.1765 23.7516 13.3154 23.7806 13.4372 23.8451C13.5589 23.9015 13.6721 23.9735 13.7737 24.0591L13.7757 24.0606C13.9554 24.2184 14.1729 24.2595 14.3814 24.2214C14.593 24.1828 14.7919 24.0627 14.9199 23.9032C15.047 23.7448 15.0981 23.5566 15.0375 23.3739C14.9765 23.1899 14.7933 22.9838 14.3907 22.8114C14.2854 22.7685 14.1763 22.7339 14.0628 22.7002C14.0321 22.6912 14.001 22.6821 13.9695 22.6729C13.8856 22.6485 13.7992 22.6233 13.7145 22.5955C13.6562 22.5765 13.5983 22.5584 13.541 22.5404C13.3844 22.4915 13.2317 22.4438 13.0848 22.3798C12.765 22.2753 12.4887 22.0746 12.297 21.8075C12.1046 21.5393 12.0077 21.2185 12.0209 20.8932C12.0219 20.1003 12.5422 19.554 13.2018 19.2616Z" fill="#3A3B7B"/>
<path d="M21.5196 19.1771C21.3923 19.1175 21.2517 19.0892 21.1102 19.0947C20.9688 19.1003 20.831 19.1396 20.7093 19.2091C20.5884 19.2781 20.4872 19.3747 20.4147 19.4904C20.3482 19.5878 20.3021 19.6967 20.2792 19.8111C20.2562 19.9253 20.2568 20.0428 20.2808 20.1568C20.3045 20.3033 20.3307 20.4458 20.3567 20.5863C20.3996 20.8189 20.4414 21.0462 20.469 21.278L20.47 21.2839C20.5328 21.6474 20.5656 22.015 20.5686 22.3834L20.5689 22.3886C20.5903 22.7864 20.4491 23.1765 20.1754 23.4761L20.1711 23.4814C20.082 23.5909 19.963 23.6745 19.8272 23.7228C19.6915 23.7712 19.5445 23.7823 19.4026 23.7549C19.2606 23.7276 19.1294 23.6629 19.0236 23.5681C18.9178 23.4732 18.8415 23.3516 18.8034 23.2176C18.7221 22.9352 18.675 22.6446 18.663 22.3518L18.8019 20.2294C18.804 20.2017 18.8063 20.1733 18.8087 20.1445C18.814 20.0801 18.8194 20.0144 18.8217 19.9532C18.8249 19.8631 18.8221 19.7704 18.8003 19.6827C18.7779 19.5931 18.7353 19.5078 18.6598 19.4351C18.585 19.3633 18.484 19.3102 18.357 19.2741C18.1273 19.2103 17.9331 19.2123 17.7712 19.2782C17.6093 19.3442 17.4983 19.4666 17.4198 19.608C17.3419 19.7482 17.2919 19.9142 17.254 20.0804C17.2259 20.2038 17.2033 20.3333 17.1819 20.4566C17.1745 20.499 17.1672 20.5407 17.1599 20.5813L17.1597 20.5824C17.0449 21.2585 17.0107 21.9449 17.0578 22.6284C17.0666 22.9978 17.1469 23.3623 17.2946 23.7035C17.4612 24.1438 17.763 24.5252 18.1601 24.7975C18.558 25.0703 19.0329 25.2206 19.5219 25.2286C20.0108 25.2365 20.4908 25.1017 20.8981 24.842C21.3048 24.5826 21.62 24.2109 21.802 23.7761C22.0566 23.2221 22.1761 22.6196 22.1514 22.0146C22.1365 21.5729 22.1114 21.1278 22.0865 20.6849C22.0743 20.4677 22.0621 20.2509 22.0511 20.0355C22.0456 19.8195 21.9714 19.6102 21.8384 19.4358C21.7561 19.3256 21.6465 19.2367 21.5196 19.1771Z" fill="#3A3B7B"/>
<path d="M26.0222 22.5052C26.0093 22.5209 25.9957 22.5372 25.9815 22.5541C25.8781 21.9812 25.7822 21.4085 25.6861 20.8349C25.6517 20.6291 25.617 20.4224 25.5822 20.2163L25.5783 20.1933L25.5656 20.1734C25.5416 20.1361 25.5392 20.0994 25.5392 20.0212V20.0122L25.5378 20.0032C25.5118 19.8418 25.4357 19.6915 25.3195 19.5722C25.2036 19.4531 25.053 19.3703 24.8874 19.3343C24.7221 19.2952 24.5484 19.3038 24.3882 19.3591C24.2283 19.4143 24.089 19.5135 23.9876 19.6443C23.9033 19.7446 23.8342 19.8559 23.7824 19.9748C23.6648 20.231 23.5463 20.4878 23.4274 20.7453L23.4253 20.7498C23.1285 21.3926 22.8297 22.0398 22.5395 22.6921L22.5386 22.6942C22.3605 23.1172 22.2135 23.5628 22.067 24.0071C22.0377 24.0958 22.0085 24.1844 21.979 24.2728C21.9261 24.413 21.9029 24.5619 21.9109 24.7108C21.9012 24.8441 21.9345 24.977 22.0062 25.0917C22.0793 25.2087 22.1888 25.3007 22.3192 25.3549C22.4574 25.413 22.612 25.4254 22.7584 25.39C22.9045 25.3546 23.0343 25.2737 23.1272 25.1599C23.2459 25.0197 23.3481 24.8669 23.4313 24.7049C23.6771 24.2224 23.912 23.734 24.1458 23.2477C24.2363 23.0596 24.3242 22.8911 24.4242 22.7077C24.4311 22.7303 24.4381 22.7523 24.4454 22.7745C24.5502 23.2174 24.7271 23.6417 24.9697 24.0317C25.0155 24.1144 25.0795 24.1866 25.1571 24.2434C25.2356 24.3009 25.3262 24.3413 25.4226 24.3618C25.519 24.3823 25.619 24.3824 25.7154 24.3621C25.8117 24.3418 25.9026 24.3014 25.9812 24.2441L26.1367 24.1324L27.3436 23.1568L27.2722 23.5933C27.1742 24.1933 27.077 24.7883 26.9737 25.3835C26.9062 25.6473 26.9063 25.9228 26.974 26.1865C27.0034 26.335 27.0782 26.4716 27.1888 26.579C27.3004 26.6873 27.4433 26.7609 27.5991 26.7903C27.7548 26.8196 27.9161 26.8034 28.0621 26.7436C28.2059 26.6847 28.3283 26.5863 28.4138 26.4608C28.6128 26.2238 28.7367 25.937 28.7707 25.6343C28.8219 25.2069 28.8798 24.7737 28.9377 24.3406C29.0044 23.8414 29.0711 23.3424 29.1274 22.8529L29.1276 22.8514C29.1818 22.3156 29.208 21.7776 29.2062 21.2393C29.2181 21.0692 29.1739 20.8997 29.0799 20.7548C28.9855 20.6095 28.8458 20.4965 28.6806 20.4319C28.5088 20.3569 28.3165 20.3369 28.132 20.3748C27.9486 20.4124 27.7827 20.5051 27.6581 20.6395C27.4355 20.8371 27.2267 21.0486 27.033 21.2725L27.0317 21.274C26.8202 21.5269 26.6102 21.7848 26.4015 22.041C26.2746 22.1968 26.1481 22.3522 26.0222 22.5052Z" fill="#3A3B7B"/>
</g>
<defs>
<clipPath id="clip0_211_2056">
<rect width="32.7153" height="20.186" fill="white" transform="translate(1.16046 7.44946)"/>
</clipPath>
</defs>
</svg>
