<svg width="34" height="34" viewBox="0 0 34 34" fill="none" xmlns="http://www.w3.org/2000/svg">
<g clip-path="url(#clip0_211_2072)">
<path d="M30.0806 8.73294C30.0806 9.0573 30.3468 9.32025 30.6752 9.32025H31.2697C31.5981 9.32025 31.8643 9.0573 31.8643 8.73294C31.8643 8.40858 31.5981 8.14563 31.2697 8.14563H30.6752C30.3468 8.14563 30.0806 8.40858 30.0806 8.73294Z" fill="#212326"/>
<path d="M12.8384 26.9395H15.7267L14.8858 26.1089C14.6628 25.8886 14.3604 25.7649 14.045 25.7649H12.8384C8.24126 25.7649 4.51456 22.0836 4.51456 17.5426C4.51456 13.0015 8.24126 9.32025 12.8384 9.32025H22.3513C26.9485 9.32025 30.6752 13.0015 30.6752 17.5426C30.6752 22.0836 26.9485 25.7649 22.3513 25.7649H18.7927C18.3197 25.7649 17.866 25.5793 17.5315 25.2489L16.5464 24.2758C15.9889 23.725 15.2327 23.4157 14.4443 23.4157H12.8384C9.55471 23.4157 6.8928 20.7862 6.8928 17.5426C6.8928 14.2989 9.55471 11.6695 12.8384 11.6695H22.3513C25.635 11.6695 28.2969 14.2989 28.2969 17.5426C28.2969 20.7862 25.635 23.4157 22.3513 23.4157H20.0664C19.5933 23.4157 19.1396 23.23 18.8051 22.8996L17.82 21.9265C17.2625 21.3758 16.5063 21.0664 15.7179 21.0664H12.8384C10.8682 21.0664 9.27103 19.4887 9.27103 17.5426C9.27103 15.5964 10.8682 14.0187 12.8384 14.0187H22.3513C24.3215 14.0187 25.9187 15.5964 25.9187 17.5426C25.9187 19.465 24.3602 21.0279 22.4233 21.0657L22.4229 21.0664H21.5528C21.0797 21.0664 20.626 20.8808 20.2915 20.5504L19.3064 19.5773C18.849 19.1254 18.2578 18.836 17.6247 18.7467L17.5949 18.7172H12.8384C12.1817 18.7172 11.6493 18.1913 11.6493 17.5426C11.6493 16.8938 12.1817 16.368 12.8384 16.368H22.3513C23.0081 16.368 23.5405 16.8938 23.5405 17.5426C23.5405 18.1913 23.0081 18.7172 22.3513 18.7172H19.9731L20.814 19.5478C21.0369 19.768 21.3394 19.8918 21.6548 19.8918H22.3513C23.6648 19.8918 24.7296 18.84 24.7296 17.5426C24.7296 16.2451 23.6648 15.1933 22.3513 15.1933H12.8384C11.5249 15.1933 10.4602 16.2451 10.4602 17.5426C10.4602 18.84 11.5249 19.8918 12.8384 19.8918H17.2043C17.6774 19.8918 18.1311 20.0774 18.4656 20.4078L19.4507 21.3809C20.0082 21.9316 20.7643 22.241 21.5528 22.241H22.6486V22.232C25.1371 22.0804 27.1078 20.0388 27.1078 17.5426C27.1078 14.9477 24.9782 12.8441 22.3513 12.8441H12.8384C10.2115 12.8441 8.08191 14.9477 8.08191 17.5426C8.08191 20.1375 10.2115 22.241 12.8384 22.241H15.7179C16.191 22.241 16.6447 22.4267 16.9792 22.7571L17.9643 23.7302C18.5218 24.2809 19.2779 24.5903 20.0664 24.5903H22.3513C26.2917 24.5903 29.4861 21.4349 29.4861 17.5426C29.4861 13.6502 26.2917 10.4949 22.3513 10.4949H12.8384C8.89798 10.4949 5.70368 13.6502 5.70368 17.5426C5.70368 21.4349 8.89798 24.5903 12.8384 24.5903H14.4443C14.9173 24.5903 15.371 24.7759 15.7055 25.1063L16.6907 26.0794C17.2482 26.6301 18.0043 26.9395 18.7927 26.9395H22.3513C27.6052 26.9395 31.8643 22.7324 31.8643 17.5426C31.8643 12.3528 27.6052 8.14563 22.3513 8.14563L12.8384 8.14563C7.58453 8.14563 3.32544 12.3528 3.32544 17.5426C3.32544 22.7324 7.58453 26.9395 12.8384 26.9395Z" fill="#212326"/>
</g>
<defs>
<clipPath id="clip0_211_2072">
<rect width="28.5388" height="18.7939" fill="white" transform="translate(3.32544 8.14563)"/>
</clipPath>
</defs>
</svg>
